<svg width="30" height="36" viewBox="0 0 30 36" fill="none" xmlns="http://www.w3.org/2000/svg">
<path d="M1.51825 13.2337C-1.52524 18.5151 0.409563 26.53 3.77517 31.3896C5.45514 33.8192 7.156 36.0001 9.48562 36.0001C9.52953 36.0001 9.57356 35.9993 9.61864 35.9975C10.7132 35.9539 11.5041 35.6169 12.2688 35.2912C13.1274 34.9253 14.0154 34.547 15.4082 34.547C16.7332 34.547 17.5788 34.913 18.3966 35.2669C19.2025 35.6156 20.0326 35.9763 21.2592 35.9533C23.8833 35.9044 25.4945 33.5511 26.916 31.475C28.3993 29.3073 29.1434 27.2026 29.3944 26.3984L29.4046 26.3664C29.4524 26.2234 29.3849 26.0674 29.2478 26.0045C29.2441 26.0027 29.2301 25.9969 29.2262 25.9953C28.7641 25.8063 24.7106 24.0081 24.668 19.1068C24.6285 15.1249 27.7089 13.0162 28.3267 12.634L28.3555 12.6161C28.4224 12.573 28.4691 12.5047 28.4849 12.4265C28.5007 12.3485 28.4842 12.2673 28.4393 12.2017C26.3131 9.09006 23.0542 8.62112 21.7421 8.5647C21.5517 8.54569 21.3552 8.53613 21.1578 8.53613C19.6168 8.53613 18.1405 9.11816 16.9545 9.5858C16.1359 9.90862 15.4287 10.1874 14.941 10.1874C14.393 10.1874 13.6818 9.9052 12.8583 9.57849C11.7571 9.14141 10.5089 8.64614 9.18747 8.64614C9.15595 8.64614 9.12491 8.64649 9.09434 8.64708C6.02193 8.69229 3.11878 10.45 1.51825 13.2337Z" fill="#3C3C3C"/>
<path d="M21.745 0.000226793C19.8844 0.0760042 17.6526 1.22128 16.3185 2.78381C15.1848 4.09717 14.0773 6.28692 14.3691 8.49414C14.3874 8.63224 14.4998 8.73883 14.6387 8.74957C14.7643 8.75937 14.8925 8.76432 15.0202 8.76444C16.8394 8.76444 18.802 7.75797 20.1422 6.13737C21.5528 4.42612 22.2661 2.23 22.0504 0.262851C22.0334 0.108699 21.8977 -0.00579291 21.745 0.000226793Z" fill="#3C3C3C"/>
</svg>
