<svg width="13" height="13" viewBox="0 0 13 13" fill="none" xmlns="http://www.w3.org/2000/svg">
<path d="M12 6.5H10.7778C10.1028 6.5 9.55556 7.04721 9.55556 7.72222V8.94444C9.55556 9.61946 10.1028 10.1667 10.7778 10.1667C11.4528 10.1667 12 9.61946 12 8.94444V6.5ZM12 6.5C12 3.46243 9.53757 1 6.5 1C3.46243 1 1 3.46243 1 6.5M1 6.5V8.94444C1 9.61946 1.54721 10.1667 2.22222 10.1667C2.89724 10.1667 3.44444 9.61946 3.44444 8.94444V7.72222C3.44444 7.04721 2.89724 6.5 2.22222 6.5H1ZM12 7.72222V10.1667C12 11.3889 11.5926 12 10.7778 12C9.96296 12 8.94444 12 7.72222 12" stroke="white" stroke-linecap="square"/>
</svg>
