<svg width="24" height="24" viewBox="0 0 24 24" fill="none" xmlns="http://www.w3.org/2000/svg">
<path d="M17.3269 23.6655H17.3596C17.9756 23.6655 18.5578 23.4228 18.9988 22.9818L22.1628 19.8178C22.2712 19.7096 22.3572 19.581 22.4159 19.4395C22.4746 19.2979 22.5048 19.1462 22.5048 18.993C22.5048 18.8398 22.4746 18.688 22.4159 18.5465C22.3572 18.405 22.2712 18.2764 22.1628 18.1681L17.4961 13.5015C17.3878 13.393 17.2593 13.307 17.1177 13.2483C16.9762 13.1896 16.8245 13.1594 16.6713 13.1594C16.518 13.1594 16.3663 13.1896 16.2248 13.2483C16.0833 13.307 15.9547 13.393 15.8464 13.5015L13.9868 15.3611C13.1246 15.1045 11.5158 14.5211 10.4961 13.5015C9.47643 12.4818 8.89309 10.873 8.63643 10.0108L10.4961 8.15115C10.6045 8.04289 10.6906 7.91432 10.7493 7.77279C10.8079 7.63125 10.8382 7.47954 10.8382 7.32631C10.8382 7.17309 10.8079 7.02137 10.7493 6.87984C10.6906 6.7383 10.6045 6.60973 10.4961 6.50148L5.82943 1.83481C5.60639 1.62429 5.31129 1.50702 5.00459 1.50702C4.69789 1.50702 4.4028 1.62429 4.17976 1.83481L1.01693 4.99881C0.573594 5.44215 0.323927 6.05115 0.33326 6.67298C0.360094 8.33431 0.799927 14.1046 5.34759 18.6523C9.89526 23.2 15.6656 23.6386 17.3269 23.6655ZM5.00576 4.30931L8.02276 7.32631L6.51426 8.83481C6.37698 8.97171 6.27614 9.14078 6.22092 9.32662C6.1657 9.51246 6.15785 9.70916 6.19809 9.89881C6.22609 10.033 6.91093 13.2145 8.84759 15.1511C10.7843 17.0878 13.9658 17.7726 14.0999 17.8006C14.2896 17.8411 14.4863 17.8334 14.6722 17.7781C14.8581 17.7229 15.0272 17.6219 15.1639 17.4845L16.6724 15.976L19.6894 18.993L17.3491 21.3321C15.8931 21.3076 10.9114 20.9168 6.99726 17.0015C3.07026 13.0745 2.68993 8.07531 2.66659 6.64848L5.00576 4.30931ZM21.3321 10.8321H23.6654C23.6654 4.84715 19.1469 0.333313 13.1538 0.333313V2.66665C17.8928 2.66665 21.3321 6.10014 21.3321 10.8321Z" fill="white"/>
<path d="M13.1654 7.33331C15.6189 7.33331 16.6654 8.37981 16.6654 10.8333H18.9987C18.9987 7.07081 16.9279 4.99998 13.1654 4.99998V7.33331Z" fill="white"/>
</svg>
