<svg width="77" height="73" viewBox="0 0 77 73" fill="none" xmlns="http://www.w3.org/2000/svg">
<path d="M53.4429 8.23885L53.4429 8.23878C54.239 6.46976 53.434 4.4009 51.6545 3.6158L51.6545 3.61579C46.9743 1.55122 42.0025 0.502793 36.8791 0.5H36.8788H36.8788H36.8787H36.8787H36.8786H36.8786H36.8785H36.8785H36.8784H36.8784H36.8784H36.8783H36.8783H36.8782H36.8782H36.8781H36.8781H36.8781H36.878H36.878H36.8779H36.8779H36.8778H36.8778H36.8777H36.8777H36.8777H36.8776H36.8776H36.8775H36.8775H36.8774H36.8774H36.8773H36.8773H36.8773H36.8772H36.8772H36.8771H36.8771H36.877H36.877H36.877H36.8769H36.8769H36.8768H36.8768H36.8767H36.8767H36.8767H36.8766H36.8766H36.8765H36.8765H36.8764H36.8764H36.8764H36.8763H36.8763H36.8762H36.8762H36.8761H36.8761H36.8761H36.876H36.876H36.8759H36.8759H36.8759H36.8758H36.8758H36.8757H36.8757H36.8756H36.8756H36.8756H36.8755H36.8755H36.8754H36.8754H36.8753H36.8753H36.8753H36.8752H36.8752H36.8751H36.8751H36.8751H36.875H36.875H36.8749H36.8749H36.8748H36.8748H36.8748H36.8747H36.8747H36.8746H36.8746H36.8746H36.8745H36.8745H36.8744H36.8744H36.8744H36.8743H36.8743H36.8742H36.8742H36.8741H36.8741H36.8741H36.874H36.874H36.8739H36.8739H36.8739H36.8738H36.8738H36.8737H36.8737H36.8736H36.8736H36.8736H36.8735H36.8735H36.8734H36.8734H36.8734H36.8733H36.8733H36.8732H36.8732H36.8732H36.8731H36.8731H36.873H36.873H36.873H36.8729H36.8729H36.8728H36.8728H36.8728H36.8727H36.8727H36.8726H36.8726H36.8726H36.8725H36.8725H36.8724H36.8724H36.8724H36.8723H36.8723H36.8722H36.8722H36.8722H36.8721H36.8721H36.872H36.872H36.8719H36.8719H36.8719H36.8718H36.8718H36.8717H36.8717H36.8717H36.8716H36.8716H36.8715H36.8715H36.8715H36.8714H36.8714H36.8713H36.8713H36.8713H36.8712H36.8712H36.8712H36.8711H36.8711H36.871H36.871H36.8709H36.8709H36.8709H36.8708H36.8708H36.8708H36.8707H36.8707H36.8706H36.8706H36.8706H36.8705H36.8705H36.8704H36.8704H36.8704H36.8703H36.8703H36.8702H36.8702H36.8702H36.8701H36.8701H36.87H36.87H36.87H36.8699H36.8699H36.8698H36.8698H36.8698H36.8697H36.8697H36.8696H36.8696H36.8696H36.8695H36.8695H36.8694H36.8694H36.8694H36.8693H36.8693H36.8692H36.8692H36.8692H36.8691H36.8691H36.869H36.869H36.869H36.8689H36.8689H36.8689H36.8688H36.8688H36.8687H36.8687H36.8687H36.8686H36.8686H36.8685H36.8685H36.8685H36.8684H36.8684H36.8683H36.8683H36.8683H36.8682H36.8682H36.8681H36.8681H36.8681H36.868H36.868H36.8679H36.8679H36.8679H36.8678H36.8678H36.8677H36.8677H36.8677H36.8676H36.8676H36.8675H36.8675H36.8675H36.8674H36.8674H36.8673H36.8673H36.8673H36.8672H36.8672H36.8672H36.8671H36.8671H36.867H36.867H36.867H36.8669H36.8669H36.8668H36.8668H36.8668H36.8667H36.8667H36.8666H36.8666H36.8666H36.8665H36.8665H36.8664H36.8664H36.8664H36.8663H36.8663H36.8662H36.8662H36.8662H36.8661H36.8661H36.866H36.866H36.866H36.8659H36.8659H36.8658H36.8658H36.8658H36.8657H36.8657H36.8656H36.8656H36.8656H36.8655H36.8655H36.8654H36.8654H36.8654H36.8653H36.8653H36.8652H36.8652H36.8652H36.8651H36.8651H36.865H36.865H36.865H36.8649H36.8649H36.8648H36.8648H36.8648H36.8647H36.8647H36.8646H36.8646H36.8646H36.8645H36.8645H36.8644H36.8644H36.8644H36.8643H36.8643H36.8642H36.8642H36.8642H36.8641H36.8641H36.864H36.864H36.864H36.8639H36.8639H36.8638H36.8638H36.8638H36.8637H36.8637H36.8636H36.8636H36.8636H36.8635H36.8635H36.8634H36.8634H36.8634H36.8633H36.8633H36.8632H36.8632H36.8632H36.8631H36.8631H36.863H36.863H36.8629H36.8629H36.8629H36.8628H36.8628H36.8627H36.8627H36.8627H36.8626H36.8626H36.8625H36.8625H36.8625H36.8624H36.8624H36.8623H36.8623H36.8622H36.8622H36.8622H36.8621H36.8621H36.862H36.862H36.862H36.8619H36.8619H36.8618H36.8618H36.8618H36.8617H36.8617H36.8616H36.8616H36.8615H36.8615H36.8615H36.8614H36.8614H36.8613H36.8613H36.8613H36.8612H36.8612H36.8611H36.8611H36.861H36.861H36.861H36.8609H36.8609H36.8608H36.8608H36.8607H36.8607H36.8607H36.8606H36.8606H36.8605H36.8605H36.8605H36.8604H36.8604H36.8603H36.8603H36.8602H36.8602H36.8602H36.8601H36.8601H36.86H36.86H36.8599H36.8599H36.8599H36.8598H36.8598H36.8597H36.8597H36.8596H36.8596H36.8596H36.8595H36.8595H36.8594H36.8594H36.8593H36.8593H36.8592H36.8592H36.8592H36.8591H36.8591H36.859H36.859H36.8589H36.8589H36.8589H36.8588H36.8588H36.8587H36.8587H36.8586H36.8586H36.8586H36.8585H36.8585H36.8584H36.8584H36.8583H36.8583H36.8582H36.8582H36.8582H36.8581H36.8581H36.858H36.858H36.8579H36.8579H36.8578H36.8578H36.8578H36.8577C27.1572 0.5 18.0311 4.23896 11.1656 11.0279C4.29465 17.8223 0.505651 26.8627 0.500006 36.4795C0.494509 46.096 4.27281 55.1407 11.1361 61.943C17.9991 68.7452 27.1283 72.4944 36.8374 72.5H36.8376H36.8377H36.8378H36.8379H36.838H36.8381H36.8382H36.8383H36.8383H36.8384H36.8385H36.8386H36.8387H36.8388H36.8389H36.8389H36.839H36.8391H36.8392H36.8393H36.8394H36.8395H36.8395H36.8396H36.8397H36.8398H36.8399H36.84H36.84H36.8401H36.8402H36.8403H36.8404H36.8405H36.8405H36.8406H36.8407H36.8408H36.8409H36.841H36.841H36.8411H36.8412H36.8413H36.8414H36.8415H36.8415H36.8416H36.8417H36.8418H36.8419H36.842H36.842H36.8421H36.8422H36.8423H36.8424H36.8424H36.8425H36.8426H36.8427H36.8428H36.8429H36.8429H36.843H36.8431H36.8432H36.8433H36.8433H36.8434H36.8435H36.8436H36.8437H36.8438H36.8438H36.8439H36.844H36.8441H36.8442H36.8442H36.8443H36.8444H36.8445H36.8446H36.8446H36.8447H36.8448H36.8449H36.845H36.845H36.8451H36.8452H36.8453H36.8454H36.8454H36.8455H36.8456H36.8457H36.8458H36.8458H36.8459H36.846H36.8461H36.8461H36.8462H36.8463H36.8464H36.8465H36.8465H36.8466H36.8467H36.8468H36.8469H36.8469H36.847H36.8471H36.8472H36.8473H36.8473H36.8474H36.8475H36.8476H36.8477H36.8477H36.8478H36.8479H36.848H36.8481H36.8481H36.8482H36.8483H36.8484H36.8485H36.8485H36.8486H36.8487H36.8488H36.8489H36.8489H36.849H36.8491H36.8492H36.8492H36.8493H36.8494H36.8495H36.8496H36.8496H36.8497H36.8498H36.8499H36.85H36.85H36.8501H36.8502H36.8503H36.8504H36.8504H36.8505H36.8506H36.8507H36.8508H36.8508H36.8509H36.851H36.8511H36.8512H36.8512H36.8513H36.8514H36.8515H36.8516H36.8517H36.8517H36.8518H36.8519H36.852H36.8521H36.8521H36.8522H36.8523H36.8524H36.8525H36.8525H36.8526H36.8527H36.8528H36.8529H36.853H36.853H36.8531H36.8532H36.8533H36.8534H36.8534H36.8535H36.8536H36.8537H36.8538H36.8539H36.8539H36.854H36.8541H36.8542H36.8543H36.8544H36.8544H36.8545H36.8546H36.8547H36.8548H36.8549H36.8549H36.855H36.8551H36.8552H36.8553H36.8554H36.8554H36.8555H36.8556H36.8557H36.8558H36.8559H36.8559H36.856H36.8561H36.8562H36.8563H36.8564H36.8565H36.8565H36.8566H36.8567H36.8568H36.8569H36.857H36.8571H36.8572H36.8572H36.8573H36.8574H36.8575H36.8576H36.8577H36.8578H36.8579H36.8579H36.858H36.8581H36.8582H36.8583H36.8584H36.8585H36.8586H36.8587H36.8587C46.5592 72.5 55.6854 68.7612 62.5508 61.9721C69.4218 55.1776 73.2108 46.1371 73.2164 36.5189V36.5186V33.4961C73.2164 31.5587 71.6316 29.9967 69.6869 29.9967C67.7422 29.9967 66.1573 31.5587 66.1573 33.496V36.5166C66.1529 44.2624 63.1029 51.5415 57.5657 57.0169C52.0324 62.4885 44.681 65.5011 36.8587 65.5011H36.8587H36.8586H36.8585H36.8585H36.8584H36.8583H36.8583H36.8582H36.8581H36.8581H36.858H36.8579H36.8578H36.8578H36.8577H36.8576H36.8576H36.8575H36.8574H36.8574H36.8573H36.8572H36.8572H36.8571H36.857H36.857H36.8569H36.8568H36.8567H36.8567H36.8566H36.8565H36.8565H36.8564H36.8563H36.8563H36.8562H36.8561H36.8561H36.856H36.8559H36.8559H36.8558H36.8557H36.8556H36.8556H36.8555H36.8554H36.8554H36.8553H36.8552H36.8552H36.8551H36.855H36.855H36.8549H36.8548H36.8548H36.8547H36.8546H36.8545H36.8545H36.8544H36.8543H36.8543H36.8542H36.8541H36.8541H36.854H36.8539H36.8539H36.8538H36.8537H36.8537H36.8536H36.8535H36.8535H36.8534H36.8533H36.8532H36.8532H36.8531H36.853H36.853H36.8529H36.8528H36.8528H36.8527H36.8526H36.8526H36.8525H36.8524H36.8524H36.8523H36.8522H36.8521H36.8521H36.852H36.8519H36.8519H36.8518H36.8517H36.8517H36.8516H36.8515H36.8515H36.8514H36.8513H36.8513H36.8512H36.8511H36.851H36.851H36.8509H36.8508H36.8508H36.8507H36.8506H36.8506H36.8505H36.8504H36.8504H36.8503H36.8502H36.8502H36.8501H36.85H36.8499H36.8499H36.8498H36.8497H36.8497H36.8496H36.8495H36.8495H36.8494H36.8493H36.8493H36.8492H36.8491H36.8491H36.849H36.8489H36.8488H36.8488H36.8487H36.8486H36.8486H36.8485H36.8484H36.8484H36.8483H36.8482H36.8482H36.8481H36.848H36.848H36.8479H36.8478H36.8477H36.8477H36.8476H36.8475H36.8475H36.8474H36.8473H36.8473H36.8472H36.8471H36.8471H36.847H36.8469H36.8469H36.8468H36.8467H36.8466H36.8466H36.8465H36.8464H36.8464H36.8463H36.8462H36.8462H36.8461H36.846H36.846H36.8459H36.8458H36.8458H36.8457H36.8456H36.8456H36.8455H36.8454H36.8453H36.8453H36.8452H36.8451H36.8451H36.845H36.8449H36.8449H36.8448H36.8447H36.8447H36.8446H36.8445H36.8445H36.8444H36.8443H36.8442H36.8442H36.8441H36.844H36.844H36.8439H36.8438H36.8438H36.8437H36.8436H36.8436H36.8435H36.8434H36.8434H36.8433H36.8432H36.8431H36.8431H36.843H36.8429H36.8429H36.8428H36.8427H36.8427H36.8426H36.8425H36.8425H36.8424H36.8423H36.8423H36.8422H36.8421H36.842H36.842H36.8419H36.8418H36.8418H36.8417H36.8416H36.8416H36.8415H36.8414C20.6816 65.492 7.54991 52.4697 7.55913 36.4832C7.56359 28.7376 10.6136 21.4585 16.1509 15.9828C21.6842 10.5112 29.0358 7.49859 36.8579 7.49859H36.8579H36.8579H36.858H36.858H36.858H36.8581H36.8581H36.8581H36.8582H36.8582H36.8582H36.8583H36.8583H36.8583H36.8584H36.8584H36.8584H36.8585H36.8585H36.8585H36.8586H36.8586H36.8586H36.8587H36.8587H36.8587H36.8588H36.8588H36.8589H36.8589H36.8589H36.859H36.859H36.859H36.8591H36.8591H36.8591H36.8592H36.8592H36.8592H36.8593H36.8593H36.8593H36.8594H36.8594H36.8594H36.8595H36.8595H36.8595H36.8596H36.8596H36.8596H36.8597H36.8597H36.8597H36.8598H36.8598H36.8598H36.8599H36.8599H36.86H36.86H36.86H36.8601H36.8601H36.8601H36.8602H36.8602H36.8602H36.8603H36.8603H36.8603H36.8604H36.8604H36.8604H36.8605H36.8605H36.8605H36.8606H36.8606H36.8606H36.8607H36.8607H36.8607H36.8608H36.8608H36.8608H36.8609H36.8609H36.8609H36.861H36.861H36.861H36.8611H36.8611H36.8612H36.8612H36.8612H36.8613H36.8613H36.8613H36.8614H36.8614H36.8614H36.8615H36.8615H36.8615H36.8616H36.8616H36.8616H36.8617H36.8617H36.8617H36.8618H36.8618H36.8618H36.8619H36.8619H36.8619H36.862H36.862H36.862H36.8621H36.8621H36.8621H36.8622H36.8622H36.8623H36.8623H36.8623H36.8624H36.8624H36.8624H36.8625H36.8625H36.8625H36.8626H36.8626H36.8626H36.8627H36.8627H36.8627H36.8628H36.8628H36.8628H36.8629H36.8629H36.8629H36.863H36.863H36.863H36.8631H36.8631H36.8631H36.8632H36.8632H36.8632H36.8633H36.8633H36.8633H36.8634H36.8634H36.8635H36.8635H36.8635H36.8636H36.8636H36.8636H36.8637H36.8637H36.8637H36.8638H36.8638H36.8638H36.8639H36.8639H36.8639H36.864H36.864H36.864H36.8641H36.8641H36.8641H36.8642H36.8642H36.8642H36.8643H36.8643H36.8643H36.8644H36.8644H36.8644H36.8645H36.8645H36.8646H36.8646H36.8646H36.8647H36.8647H36.8647H36.8648H36.8648H36.8648H36.8649H36.8649H36.8649H36.865H36.865H36.865H36.8651H36.8651H36.8651H36.8652H36.8652H36.8652H36.8653H36.8653H36.8653H36.8654H36.8654H36.8654H36.8655H36.8655H36.8655H36.8656H36.8656H36.8657H36.8657H36.8657H36.8658H36.8658H36.8658H36.8659H36.8659H36.8659H36.866H36.866H36.866H36.8661H36.8661H36.8661H36.8662H36.8662H36.8662H36.8663H36.8663H36.8663H36.8664H36.8664H36.8664H36.8665H36.8665H36.8665H36.8666H36.8666H36.8666H36.8667H36.8667H36.8667H36.8668H36.8668H36.8669H36.8669H36.8669H36.867H36.867H36.867H36.8671H36.8671H36.8671H36.8672H36.8672H36.8672H36.8673H36.8673H36.8673H36.8674H36.8674H36.8674H36.8675H36.8675H36.8675H36.8676H36.8676H36.8676H36.8677H36.8677H36.8677H36.8678H36.8678H36.8678H36.8679H36.8679H36.868H36.868H36.868H36.8681H36.8681H36.8681H36.8682H36.8682H36.8682H36.8683H36.8683H36.8683H36.8684H36.8684H36.8684H36.8685H36.8685H36.8685H36.8686H36.8686H36.8686H36.8687H36.8687H36.8687H36.8688H36.8688H36.8688H36.8689H36.8689H36.8689H36.869H36.869H36.869H36.8691H36.8691H36.8692H36.8692H36.8692H36.8693H36.8693H36.8693H36.8694H36.8694H36.8694H36.8695H36.8695H36.8695H36.8696H36.8696H36.8696H36.8697H36.8697H36.8697H36.8698H36.8698H36.8698H36.8699H36.8699H36.8699H36.87H36.87H36.87H36.8701H36.8701H36.8701H36.8702H36.8702H36.8703H36.8703H36.8703H36.8704H36.8704H36.8704H36.8705H36.8705H36.8705H36.8706H36.8706H36.8706H36.8707H36.8707H36.8707H36.8708H36.8708H36.8708H36.8709H36.8709H36.8709H36.871H36.871H36.871H36.8711H36.8711H36.8711H36.8712H36.8712H36.8712H36.8713H36.8713H36.8713H36.8714H36.8714H36.8715H36.8715H36.8715H36.8716H36.8716H36.8716H36.8717H36.8717H36.8717H36.8718H36.8718H36.8718H36.8719H36.8719H36.8719H36.872H36.872H36.872H36.8721H36.8721H36.8721H36.8722H36.8722H36.8722H36.8723H36.8723H36.8723H36.8724H36.8724H36.8724H36.8725H36.8725H36.8726H36.8726H36.8726H36.8727H36.8727H36.8727H36.8728H36.8728H36.8728H36.8729H36.8729H36.8729H36.873H36.873H36.873H36.8731H36.8731H36.8731H36.8732H36.8732H36.8732H36.8733H36.8733H36.8733H36.8734H36.8734H36.8734H36.8735H36.8735H36.8735H36.8736H36.8736H36.8736H36.8737H36.8737H36.8738H36.8738H36.8738H36.8739H36.8739H36.8739H36.874H36.874H36.874H36.8741H36.8741H36.8741H36.8742H36.8742H36.8742H36.8743H36.8743H36.8743H36.8744H36.8744H36.8744H36.8745H36.8745H36.8745H36.8746H36.8746H36.8746H36.8747H36.8747H36.8747H36.8748H36.8748H36.8749H36.8749H36.8749H36.875H36.875H36.875H36.8751H36.8751H36.8751H36.8752C41.0058 7.50087 45.0121 8.34582 48.7849 10.01C50.5621 10.794 52.6477 10.005 53.4429 8.23885ZM75.4644 4.79193L75.1136 5.14631L75.4644 4.7919C74.0864 3.42785 71.8544 3.42785 70.4764 4.7919L70.8282 5.14725L70.4764 4.79193L36.8589 38.0734L29.5044 30.7924C29.5044 30.7924 29.5044 30.7923 29.5044 30.7923C28.1265 29.4281 25.8943 29.4281 24.5165 30.7923C23.1357 32.1593 23.1357 34.3777 24.5165 35.7447L34.3651 45.4949C34.3651 45.4949 34.3651 45.4949 34.3651 45.4949C35.0546 46.1776 35.9583 46.5181 36.8592 46.5181C37.7602 46.5181 38.6638 46.1776 39.3533 45.4949L75.4644 9.74425C76.8452 8.37727 76.8452 6.15891 75.4644 4.79193Z" fill="url(#paint0_linear)" stroke="url(#paint1_linear)"/>
<defs>
<linearGradient id="paint0_linear" x1="38.5" y1="1" x2="38.5" y2="72" gradientUnits="userSpaceOnUse">
<stop stop-color="#279499"/>
<stop offset="1" stop-color="#1F777B"/>
</linearGradient>
<linearGradient id="paint1_linear" x1="38.5" y1="1" x2="38.5" y2="72" gradientUnits="userSpaceOnUse">
<stop stop-color="#279499"/>
<stop offset="1" stop-color="#1F777B"/>
</linearGradient>
</defs>
</svg>
