<svg width="21" height="27" viewBox="0 0 21 27" fill="none" xmlns="http://www.w3.org/2000/svg">
<mask id="path-1-outside-1" maskUnits="userSpaceOnUse" x="0" y="0" width="21" height="27" fill="black">
<rect fill="white" width="21" height="27"/>
<path d="M14.806 6.80694C13.8751 6.02838 12.5556 5.53071 10.8842 5.32781C9.5398 5.16454 8.25442 5.2268 7.4128 5.30775C6.75195 5.37128 6.25364 5.9232 6.25364 6.59159V7.56209C6.25364 7.78917 6.43699 7.97316 6.66326 7.97316C6.88953 7.97316 7.07287 7.78917 7.07287 7.56209V6.59159C7.07287 6.34917 7.25256 6.14907 7.4909 6.12616C8.89889 5.99067 12.3791 5.8474 14.2816 7.4385C14.4554 7.58391 14.7136 7.56034 14.8585 7.38588C15.0033 7.21143 14.9798 6.95224 14.806 6.80694Z"/>
<path d="M14.9816 1H9.29002C8.47877 1 7.70093 1.32913 7.13129 1.90829C5.64461 2.11026 4.50249 3.40512 4.50249 4.9259V6.14907C4.50249 6.82864 4.58578 7.50761 4.75001 8.16691L4.94023 8.93067V10.4626C4.94023 12.3256 5.79971 14.0001 7.12927 15.077V16.5411C6.89175 16.5693 6.66837 16.6988 6.52446 16.9154L5.95925 17.7663L2.99882 18.8466C1.80323 19.2828 1 20.4337 1 21.7103V25.5755C1 25.8026 1.18334 25.9866 1.40962 25.9866C1.63589 25.9866 1.81923 25.8026 1.81923 25.5755V21.7103C1.81923 20.7781 2.40575 19.9378 3.27877 19.6193L6.07306 18.5996L7.78072 20.9989C7.92578 21.2027 8.15162 21.3314 8.40039 21.3521C8.42393 21.3541 8.44736 21.3551 8.47079 21.3551C8.69466 21.3551 8.90973 21.2663 9.06959 21.1059L9.32563 20.849C9.34955 21.0404 9.43645 21.2124 9.56567 21.3426L9.31897 25.5514C9.3057 25.7781 9.47801 25.9726 9.70384 25.986C9.71204 25.9865 9.72017 25.9867 9.72826 25.9867C9.94344 25.9867 10.124 25.8181 10.1368 25.5997L10.3716 21.5931H10.8353L11.0702 25.5997C11.0829 25.8181 11.2635 25.9867 11.4787 25.9867C11.4868 25.9867 11.4949 25.9865 11.5031 25.986C11.7289 25.9726 11.9012 25.7781 11.888 25.5514L11.6413 21.3426C11.7705 21.2124 11.8574 21.0404 11.8814 20.849L12.1374 21.1059C12.2972 21.2664 12.5122 21.3551 12.7362 21.3551C12.7595 21.3551 12.783 21.3541 12.8065 21.3521C13.0553 21.3315 13.2811 21.2027 13.4262 20.999L15.3148 18.3456C15.4138 18.2066 15.4167 18.0207 15.3224 17.8786L14.6826 16.9155C14.5387 16.6988 14.3153 16.5693 14.0777 16.5411V15.1264C14.2489 14.9924 14.4137 14.848 14.571 14.693C15.6645 13.6156 16.2668 12.1752 16.2668 10.6375V8.93067L16.457 8.16696C16.6212 7.50783 16.7045 6.82892 16.7045 6.14907V2.72916C16.7046 1.77565 15.9316 1 14.9816 1ZM8.49029 20.5245C8.48778 20.5271 8.48079 20.5334 8.46806 20.5328C8.45506 20.5317 8.44955 20.5239 8.44742 20.521L6.72315 18.0984L7.20612 17.3714C7.21458 17.3587 7.2314 17.3548 7.24457 17.3631L9.94983 19.0599L8.49029 20.5245ZM11.0413 20.771H10.1657C10.1502 20.771 10.1375 20.7583 10.1375 20.7427V20.0343L10.6035 19.5666L11.0695 20.0343V20.7427C11.0695 20.7582 11.0569 20.771 11.0413 20.771ZM10.6036 18.5005L7.94856 16.8352V15.6309C8.71252 16.055 9.57938 16.303 10.4977 16.3199C10.5335 16.3205 10.5691 16.3209 10.6047 16.3209C11.5452 16.3208 12.4505 16.0924 13.2586 15.6607V16.8342C13.2586 16.8345 13.2587 16.8349 13.2587 16.8352L10.6036 18.5005ZM14.484 18.0985L12.7596 20.5211C12.7576 20.524 12.752 20.5317 12.7391 20.5328C12.7254 20.5335 12.7194 20.5271 12.7169 20.5246L11.2573 19.06L13.9626 17.3632C13.9754 17.3552 13.9926 17.3589 14.001 17.3714L14.484 18.0985ZM15.8854 6.14907C15.8854 6.76172 15.8103 7.37355 15.6623 7.96762L15.4598 8.78044C15.4517 8.81305 15.4476 8.84648 15.4476 8.88008V10.6375C15.4476 11.9528 14.9325 13.1847 13.9971 14.1064C13.062 15.0278 11.8228 15.5234 10.5126 15.4978C7.8917 15.4497 5.75946 13.1909 5.75946 10.4626V8.88008C5.75946 8.84648 5.75537 8.81299 5.74723 8.78044L5.54477 7.96757C5.39671 7.37339 5.32166 6.76156 5.32166 6.14907V4.9259C5.32166 3.77568 6.21665 2.80244 7.35909 2.71025C7.46456 2.70176 7.56259 2.65265 7.63277 2.57329C8.05468 2.0959 8.65872 1.82213 9.29002 1.82213H14.9816C15.4799 1.82213 15.8854 2.22903 15.8854 2.72916V6.14907Z"/>
<path d="M18.0012 18.7422L15.0408 17.6619L14.9269 18.4952L17.7212 19.5149C18.5943 19.8334 19.1808 20.6737 19.1808 21.6059V25.4711C19.1808 25.6982 19.3641 25.8821 19.5904 25.8821C19.8167 25.8821 20 25.6982 20 25.4711V21.6059C20 20.3293 19.1968 19.1784 18.0012 18.7422Z"/>
<path d="M4.65582 22.3846L4.40289 21.8769C4.30174 21.6738 4.0557 21.5914 3.85335 21.6931C3.651 21.7946 3.56897 22.0414 3.67017 22.2445L3.9231 22.7523C4.01572 22.9382 4.06471 23.1464 4.06471 23.3543V25.5756C4.06471 25.8026 4.24806 25.9866 4.47433 25.9866C4.7006 25.9866 4.88395 25.8026 4.88395 25.5756V23.3543C4.88395 23.0194 4.80508 22.6841 4.65582 22.3846Z"/>
<path d="M16.302 22.398L16.5549 21.8903C16.6561 21.6872 16.9021 21.6048 17.1044 21.7064C17.3068 21.8079 17.3888 22.0548 17.2876 22.2579L17.0347 22.7657C16.9421 22.9516 16.8931 23.1598 16.8931 23.3677V25.5889C16.8931 25.816 16.7097 26 16.4835 26C16.2572 26 16.0739 25.816 16.0739 25.5889V23.3677C16.0739 23.0328 16.1527 22.6974 16.302 22.398Z"/>
</mask>
<path d="M14.806 6.80694C13.8751 6.02838 12.5556 5.53071 10.8842 5.32781C9.5398 5.16454 8.25442 5.2268 7.4128 5.30775C6.75195 5.37128 6.25364 5.9232 6.25364 6.59159V7.56209C6.25364 7.78917 6.43699 7.97316 6.66326 7.97316C6.88953 7.97316 7.07287 7.78917 7.07287 7.56209V6.59159C7.07287 6.34917 7.25256 6.14907 7.4909 6.12616C8.89889 5.99067 12.3791 5.8474 14.2816 7.4385C14.4554 7.58391 14.7136 7.56034 14.8585 7.38588C15.0033 7.21143 14.9798 6.95224 14.806 6.80694Z" fill="white"/>
<path d="M14.9816 1H9.29002C8.47877 1 7.70093 1.32913 7.13129 1.90829C5.64461 2.11026 4.50249 3.40512 4.50249 4.9259V6.14907C4.50249 6.82864 4.58578 7.50761 4.75001 8.16691L4.94023 8.93067V10.4626C4.94023 12.3256 5.79971 14.0001 7.12927 15.077V16.5411C6.89175 16.5693 6.66837 16.6988 6.52446 16.9154L5.95925 17.7663L2.99882 18.8466C1.80323 19.2828 1 20.4337 1 21.7103V25.5755C1 25.8026 1.18334 25.9866 1.40962 25.9866C1.63589 25.9866 1.81923 25.8026 1.81923 25.5755V21.7103C1.81923 20.7781 2.40575 19.9378 3.27877 19.6193L6.07306 18.5996L7.78072 20.9989C7.92578 21.2027 8.15162 21.3314 8.40039 21.3521C8.42393 21.3541 8.44736 21.3551 8.47079 21.3551C8.69466 21.3551 8.90973 21.2663 9.06959 21.1059L9.32563 20.849C9.34955 21.0404 9.43645 21.2124 9.56567 21.3426L9.31897 25.5514C9.3057 25.7781 9.47801 25.9726 9.70384 25.986C9.71204 25.9865 9.72017 25.9867 9.72826 25.9867C9.94344 25.9867 10.124 25.8181 10.1368 25.5997L10.3716 21.5931H10.8353L11.0702 25.5997C11.0829 25.8181 11.2635 25.9867 11.4787 25.9867C11.4868 25.9867 11.4949 25.9865 11.5031 25.986C11.7289 25.9726 11.9012 25.7781 11.888 25.5514L11.6413 21.3426C11.7705 21.2124 11.8574 21.0404 11.8814 20.849L12.1374 21.1059C12.2972 21.2664 12.5122 21.3551 12.7362 21.3551C12.7595 21.3551 12.783 21.3541 12.8065 21.3521C13.0553 21.3315 13.2811 21.2027 13.4262 20.999L15.3148 18.3456C15.4138 18.2066 15.4167 18.0207 15.3224 17.8786L14.6826 16.9155C14.5387 16.6988 14.3153 16.5693 14.0777 16.5411V15.1264C14.2489 14.9924 14.4137 14.848 14.571 14.693C15.6645 13.6156 16.2668 12.1752 16.2668 10.6375V8.93067L16.457 8.16696C16.6212 7.50783 16.7045 6.82892 16.7045 6.14907V2.72916C16.7046 1.77565 15.9316 1 14.9816 1ZM8.49029 20.5245C8.48778 20.5271 8.48079 20.5334 8.46806 20.5328C8.45506 20.5317 8.44955 20.5239 8.44742 20.521L6.72315 18.0984L7.20612 17.3714C7.21458 17.3587 7.2314 17.3548 7.24457 17.3631L9.94983 19.0599L8.49029 20.5245ZM11.0413 20.771H10.1657C10.1502 20.771 10.1375 20.7583 10.1375 20.7427V20.0343L10.6035 19.5666L11.0695 20.0343V20.7427C11.0695 20.7582 11.0569 20.771 11.0413 20.771ZM10.6036 18.5005L7.94856 16.8352V15.6309C8.71252 16.055 9.57938 16.303 10.4977 16.3199C10.5335 16.3205 10.5691 16.3209 10.6047 16.3209C11.5452 16.3208 12.4505 16.0924 13.2586 15.6607V16.8342C13.2586 16.8345 13.2587 16.8349 13.2587 16.8352L10.6036 18.5005ZM14.484 18.0985L12.7596 20.5211C12.7576 20.524 12.752 20.5317 12.7391 20.5328C12.7254 20.5335 12.7194 20.5271 12.7169 20.5246L11.2573 19.06L13.9626 17.3632C13.9754 17.3552 13.9926 17.3589 14.001 17.3714L14.484 18.0985ZM15.8854 6.14907C15.8854 6.76172 15.8103 7.37355 15.6623 7.96762L15.4598 8.78044C15.4517 8.81305 15.4476 8.84648 15.4476 8.88008V10.6375C15.4476 11.9528 14.9325 13.1847 13.9971 14.1064C13.062 15.0278 11.8228 15.5234 10.5126 15.4978C7.8917 15.4497 5.75946 13.1909 5.75946 10.4626V8.88008C5.75946 8.84648 5.75537 8.81299 5.74723 8.78044L5.54477 7.96757C5.39671 7.37339 5.32166 6.76156 5.32166 6.14907V4.9259C5.32166 3.77568 6.21665 2.80244 7.35909 2.71025C7.46456 2.70176 7.56259 2.65265 7.63277 2.57329C8.05468 2.0959 8.65872 1.82213 9.29002 1.82213H14.9816C15.4799 1.82213 15.8854 2.22903 15.8854 2.72916V6.14907Z" fill="white"/>
<path d="M18.0012 18.7422L15.0408 17.6619L14.9269 18.4952L17.7212 19.5149C18.5943 19.8334 19.1808 20.6737 19.1808 21.6059V25.4711C19.1808 25.6982 19.3641 25.8821 19.5904 25.8821C19.8167 25.8821 20 25.6982 20 25.4711V21.6059C20 20.3293 19.1968 19.1784 18.0012 18.7422Z" fill="white"/>
<path d="M4.65582 22.3846L4.40289 21.8769C4.30174 21.6738 4.0557 21.5914 3.85335 21.6931C3.651 21.7946 3.56897 22.0414 3.67017 22.2445L3.9231 22.7523C4.01572 22.9382 4.06471 23.1464 4.06471 23.3543V25.5756C4.06471 25.8026 4.24806 25.9866 4.47433 25.9866C4.7006 25.9866 4.88395 25.8026 4.88395 25.5756V23.3543C4.88395 23.0194 4.80508 22.6841 4.65582 22.3846Z" fill="white"/>
<path d="M16.302 22.398L16.5549 21.8903C16.6561 21.6872 16.9021 21.6048 17.1044 21.7064C17.3068 21.8079 17.3888 22.0548 17.2876 22.2579L17.0347 22.7657C16.9421 22.9516 16.8931 23.1598 16.8931 23.3677V25.5889C16.8931 25.816 16.7097 26 16.4835 26C16.2572 26 16.0739 25.816 16.0739 25.5889V23.3677C16.0739 23.0328 16.1527 22.6974 16.302 22.398Z" fill="white"/>
<path d="M6.22168 18.5793L6.10787 17.746L5.81063 17.7866L5.92444 18.6199L6.22168 18.5793ZM14.806 6.80694L14.6136 7.03707L14.6136 7.03709L14.806 6.80694ZM10.8842 5.32781L10.848 5.62562L10.848 5.62563L10.8842 5.32781ZM7.4128 5.30775L7.44151 5.60638L7.44152 5.60637L7.4128 5.30775ZM7.4909 6.12616L7.51961 6.42478L7.51964 6.42478L7.4909 6.12616ZM14.2816 7.4385L14.474 7.20838L14.474 7.20837L14.2816 7.4385ZM14.8585 7.38588L15.0893 7.57752L15.0893 7.57747L14.8585 7.38588ZM7.13129 1.90829L7.17168 2.20556L7.27328 2.19176L7.34518 2.11866L7.13129 1.90829ZM4.75001 8.16691L5.04111 8.0944L5.04111 8.09439L4.75001 8.16691ZM4.94023 8.93067H5.24023V8.89387L5.23134 8.85816L4.94023 8.93067ZM7.12927 15.077H7.42927V14.934L7.3181 14.8439L7.12927 15.077ZM7.12927 16.5411L7.16461 16.8391L7.42927 16.8077V16.5411H7.12927ZM6.52446 16.9154L6.77435 17.0814L6.77436 17.0814L6.52446 16.9154ZM5.95925 17.7663L6.06209 18.0481L6.15463 18.0143L6.20913 17.9323L5.95925 17.7663ZM2.99882 18.8466L3.10164 19.1284L3.10166 19.1284L2.99882 18.8466ZM3.27877 19.6193L3.38159 19.9011L3.38162 19.9011L3.27877 19.6193ZM6.07306 18.5996L6.31748 18.4256L6.18494 18.2394L5.97022 18.3178L6.07306 18.5996ZM7.78072 20.9989L8.02517 20.8249L8.02514 20.8249L7.78072 20.9989ZM8.40039 21.3521L8.42545 21.0531L8.42522 21.0531L8.40039 21.3521ZM9.06959 21.1059L9.28206 21.3177L9.2821 21.3177L9.06959 21.1059ZM9.32563 20.849L9.62332 20.8118L9.54707 20.2018L9.11312 20.6372L9.32563 20.849ZM9.56567 21.3426L9.86515 21.3601L9.87299 21.2263L9.77857 21.1312L9.56567 21.3426ZM9.31897 25.5514L9.01948 25.5339L9.01948 25.5339L9.31897 25.5514ZM9.70384 25.986L9.72188 25.6865L9.72151 25.6865L9.70384 25.986ZM10.1368 25.5997L9.83729 25.5822L9.83729 25.5822L10.1368 25.5997ZM10.3716 21.5931V21.2931H10.0887L10.0721 21.5755L10.3716 21.5931ZM10.8353 21.5931L11.1348 21.5755L11.1182 21.2931H10.8353V21.5931ZM11.0702 25.5997L11.3696 25.5822L11.3696 25.5822L11.0702 25.5997ZM11.5031 25.986L11.4854 25.6865L11.4851 25.6865L11.5031 25.986ZM11.888 25.5514L12.1875 25.5339L12.1875 25.5339L11.888 25.5514ZM11.6413 21.3426L11.4284 21.1312L11.3339 21.2263L11.3418 21.3601L11.6413 21.3426ZM11.8814 20.849L12.0939 20.6372L11.6601 20.2019L11.5837 20.8117L11.8814 20.849ZM12.1374 21.1059L12.3499 20.8942L12.3499 20.8942L12.1374 21.1059ZM12.8065 21.3521L12.7817 21.0532L12.7814 21.0532L12.8065 21.3521ZM13.4262 20.999L13.6706 21.1729L13.6706 21.1729L13.4262 20.999ZM15.3148 18.3456L15.0705 18.1715L15.0704 18.1716L15.3148 18.3456ZM15.3224 17.8786L15.5723 17.7126L15.5722 17.7126L15.3224 17.8786ZM14.6826 16.9155L14.4327 17.0815L14.4327 17.0815L14.6826 16.9155ZM14.0777 16.5411H13.7777V16.8077L14.0424 16.8391L14.0777 16.5411ZM14.0777 15.1264L13.8928 14.8902L13.7777 14.9803V15.1264H14.0777ZM14.571 14.693L14.3604 14.4794L14.3604 14.4794L14.571 14.693ZM16.2668 8.93067L15.9757 8.85816L15.9668 8.89387V8.93067H16.2668ZM16.457 8.16696L16.1659 8.09443L16.1659 8.09445L16.457 8.16696ZM16.7045 2.72916L16.4045 2.72913V2.72916H16.7045ZM8.49029 20.5245L8.27779 20.3128L8.27778 20.3128L8.49029 20.5245ZM8.46806 20.5328L8.44284 20.8319L8.45258 20.8324L8.46806 20.5328ZM8.44742 20.521L8.203 20.6949L8.20392 20.6962L8.44742 20.521ZM6.72315 18.0984L6.47326 17.9324L6.3591 18.1043L6.47874 18.2724L6.72315 18.0984ZM7.20612 17.3714L6.95639 17.2051L6.95623 17.2054L7.20612 17.3714ZM7.24457 17.3631L7.08488 17.6171L7.08516 17.6173L7.24457 17.3631ZM9.94983 19.0599L10.1623 19.2717L10.4276 19.0055L10.1092 18.8058L9.94983 19.0599ZM10.1375 20.0343L9.92504 19.8225L9.83754 19.9103V20.0343H10.1375ZM10.6035 19.5666L10.816 19.3549L10.6035 19.1416L10.391 19.3549L10.6035 19.5666ZM11.0695 20.0343H11.3695V19.9103L11.282 19.8225L11.0695 20.0343ZM10.6036 18.5005L10.4442 18.7546L10.6036 18.8546L10.763 18.7547L10.6036 18.5005ZM7.94856 16.8352H7.64856V17.0012L7.78915 17.0893L7.94856 16.8352ZM7.94856 15.6309L8.09418 15.3686L7.64856 15.1212V15.6309H7.94856ZM10.4977 16.3199L10.5032 16.0199H10.5032L10.4977 16.3199ZM10.6047 16.3209V16.6209H10.6047L10.6047 16.3209ZM13.2586 15.6607H13.5586V15.1604L13.1173 15.3961L13.2586 15.6607ZM13.2587 16.8352L13.4181 17.0894L13.5587 17.0012V16.8352H13.2587ZM14.484 18.0985L14.7284 18.2724L14.848 18.1043L14.7338 17.9325L14.484 18.0985ZM12.7596 20.5211L13.0037 20.6955L13.004 20.695L12.7596 20.5211ZM12.7391 20.5328L12.7547 20.8326L12.7644 20.8317L12.7391 20.5328ZM12.7169 20.5246L12.9294 20.3128L12.9294 20.3128L12.7169 20.5246ZM11.2573 19.06L11.0979 18.8058L10.7795 19.0055L11.0448 19.2718L11.2573 19.06ZM13.9626 17.3632L13.8034 17.1089L13.8032 17.109L13.9626 17.3632ZM14.001 17.3714L14.2509 17.2054L14.2507 17.2052L14.001 17.3714ZM15.6623 7.96762L15.3712 7.89507L15.3712 7.89511L15.6623 7.96762ZM15.4598 8.78044L15.1687 8.70793L15.1686 8.70826L15.4598 8.78044ZM13.9971 14.1064L13.7865 13.8927L13.7865 13.8927L13.9971 14.1064ZM10.5126 15.4978L10.5184 15.1979L10.5181 15.1979L10.5126 15.4978ZM5.74723 8.78044L5.45612 8.85294L5.45618 8.85319L5.74723 8.78044ZM5.54477 7.96757L5.83588 7.89506L5.83587 7.89503L5.54477 7.96757ZM7.35909 2.71025L7.33501 2.41122L7.33496 2.41123L7.35909 2.71025ZM7.63277 2.57329L7.85751 2.77202L7.85756 2.77195L7.63277 2.57329ZM15.0408 17.6619L15.1436 17.3801L14.7939 17.2524L14.7435 17.6213L15.0408 17.6619ZM18.0012 18.7422L17.8983 19.024L17.8984 19.024L18.0012 18.7422ZM17.7212 19.5149L17.6184 19.7967L17.6184 19.7967L17.7212 19.5149ZM14.9269 18.4952L14.6297 18.4546L14.597 18.6941L14.8241 18.777L14.9269 18.4952ZM4.65582 22.3846L4.38729 22.5184L4.38733 22.5185L4.65582 22.3846ZM4.40289 21.8769L4.13436 22.0106L4.13436 22.0106L4.40289 21.8769ZM3.85335 21.6931L3.98787 21.9612L3.98798 21.9612L3.85335 21.6931ZM3.67017 22.2445L3.9387 22.1108L3.93869 22.1108L3.67017 22.2445ZM3.9231 22.7523L3.65457 22.8861L3.65458 22.8861L3.9231 22.7523ZM16.302 22.398L16.5705 22.5319L16.5705 22.5318L16.302 22.398ZM16.5549 21.8903L16.8234 22.024L16.8234 22.024L16.5549 21.8903ZM17.1044 21.7064L16.9698 21.9745L16.9699 21.9746L17.1044 21.7064ZM17.2876 22.2579L17.0191 22.1241L17.0191 22.1242L17.2876 22.2579ZM17.0347 22.7657L17.3032 22.8995L17.3032 22.8994L17.0347 22.7657ZM14.9985 6.5768C14.0089 5.74926 12.6278 5.23728 10.9203 5.03L10.848 5.62563C12.4833 5.82415 13.7412 6.30749 14.6136 7.03707L14.9985 6.5768ZM10.9203 5.03C9.54674 4.86317 8.23791 4.927 7.38408 5.00913L7.44152 5.60637C8.27094 5.5266 9.53286 5.4659 10.848 5.62562L10.9203 5.03ZM7.3841 5.00913C6.56774 5.0876 5.95364 5.7703 5.95364 6.59159H6.55364C6.55364 6.0761 6.93617 5.65495 7.44151 5.60638L7.3841 5.00913ZM5.95364 6.59159V7.56209H6.55364V6.59159H5.95364ZM5.95364 7.56209C5.95364 7.95385 6.2703 8.27316 6.66326 8.27316V7.67316C6.60367 7.67316 6.55364 7.62448 6.55364 7.56209H5.95364ZM6.66326 8.27316C7.05621 8.27316 7.37287 7.95385 7.37287 7.56209H6.77287C6.77287 7.62448 6.72285 7.67316 6.66326 7.67316V8.27316ZM7.37287 7.56209V6.59159H6.77287V7.56209H7.37287ZM7.37287 6.59159C7.37287 6.50063 7.43819 6.43261 7.51961 6.42478L7.4622 5.82753C7.06693 5.86553 6.77287 6.19771 6.77287 6.59159H7.37287ZM7.51964 6.42478C8.21273 6.35808 9.41184 6.29008 10.6669 6.43293C11.9294 6.57664 13.2048 6.92909 14.0891 7.66863L14.474 7.20837C13.4558 6.3568 12.0399 5.98535 10.7347 5.83678C9.42204 5.68737 8.17705 5.75874 7.46217 5.82754L7.51964 6.42478ZM14.0891 7.66861C14.3905 7.92071 14.8384 7.87964 15.0893 7.57752L14.6277 7.19425C14.5888 7.24104 14.5203 7.2471 14.474 7.20838L14.0891 7.66861ZM15.0893 7.57747C15.3394 7.27611 15.2993 6.8283 14.9985 6.57678L14.6136 7.03709C14.6604 7.07617 14.6671 7.14675 14.6276 7.19429L15.0893 7.57747ZM14.9816 0.7H9.29002V1.3H14.9816V0.7ZM9.29002 0.7C8.39749 0.7 7.54285 1.06203 6.91741 1.69793L7.34518 2.11866C7.85902 1.59623 8.56004 1.3 9.29002 1.3V0.7ZM7.09091 1.61102C5.45583 1.83315 4.20249 3.25471 4.20249 4.9259H4.80249C4.80249 3.55553 5.83338 2.38737 7.17168 2.20556L7.09091 1.61102ZM4.20249 4.9259V6.14907H4.80249V4.9259H4.20249ZM4.20249 6.14907C4.20249 6.85308 4.28876 7.5564 4.4589 8.23942L5.04111 8.09439C4.88279 7.45882 4.80249 6.8042 4.80249 6.14907H4.20249ZM4.4589 8.23941L4.64912 9.00317L5.23134 8.85816L5.04111 8.0944L4.4589 8.23941ZM4.64023 8.93067V10.4626H5.24023V8.93067H4.64023ZM4.64023 10.4626C4.64023 12.4189 5.54278 14.178 6.94045 15.3102L7.3181 14.8439C6.05665 13.8221 5.24023 12.2323 5.24023 10.4626H4.64023ZM6.82927 15.077V16.5411H7.42927V15.077H6.82927ZM7.09394 16.2432C6.77112 16.2815 6.46834 16.4577 6.27456 16.7494L6.77436 17.0814C6.8684 16.9398 7.01238 16.8571 7.16461 16.8391L7.09394 16.2432ZM6.27457 16.7494L5.70936 17.6003L6.20913 17.9323L6.77435 17.0814L6.27457 16.7494ZM5.8564 17.4845L2.89597 18.5648L3.10166 19.1284L6.06209 18.0481L5.8564 17.4845ZM2.89599 18.5648C1.5815 19.0444 0.7 20.3082 0.7 21.7103H1.3C1.3 20.5592 2.02496 19.5213 3.10164 19.1284L2.89599 18.5648ZM0.7 21.7103V25.5755H1.3V21.7103H0.7ZM0.7 25.5755C0.7 25.9673 1.01666 26.2866 1.40962 26.2866V25.6866C1.35003 25.6866 1.3 25.6379 1.3 25.5755H0.7ZM1.40962 26.2866C1.80257 26.2866 2.11923 25.9673 2.11923 25.5755H1.51923C1.51923 25.6379 1.4692 25.6866 1.40962 25.6866V26.2866ZM2.11923 25.5755V21.7103H1.51923V25.5755H2.11923ZM2.11923 21.7103C2.11923 20.9036 2.62748 20.1763 3.38159 19.9011L3.17596 19.3375C2.18402 19.6994 1.51923 20.6526 1.51923 21.7103H2.11923ZM3.38162 19.9011L6.17591 18.8814L5.97022 18.3178L3.17593 19.3375L3.38162 19.9011ZM5.82865 18.7736L7.53631 21.1728L8.02514 20.8249L6.31748 18.4256L5.82865 18.7736ZM7.53628 21.1728C7.73245 21.4485 8.03855 21.6231 8.37556 21.6511L8.42522 21.0531C8.26468 21.0398 8.11912 20.957 8.02517 20.8249L7.53628 21.1728ZM8.37533 21.651C8.40713 21.6537 8.43892 21.6551 8.47079 21.6551V21.0551C8.45581 21.0551 8.44074 21.0544 8.42545 21.0531L8.37533 21.651ZM8.47079 21.6551C8.77437 21.6551 9.0659 21.5346 9.28206 21.3177L8.85712 20.8942C8.75357 20.998 8.61495 21.0551 8.47079 21.0551V21.6551ZM9.2821 21.3177L9.53814 21.0608L9.11312 20.6372L8.85709 20.8942L9.2821 21.3177ZM9.02795 20.8862C9.06028 21.1449 9.17787 21.3777 9.35276 21.5539L9.77857 21.1312C9.69502 21.047 9.63882 20.9359 9.62332 20.8118L9.02795 20.8862ZM9.26618 21.325L9.01948 25.5339L9.61845 25.569L9.86515 21.3601L9.26618 21.325ZM9.01948 25.5339C8.99659 25.9248 9.29396 26.2623 9.68618 26.2854L9.72151 25.6865C9.66206 25.683 9.61481 25.6313 9.61846 25.569L9.01948 25.5339ZM9.68581 26.2854C9.70057 26.2863 9.71475 26.2867 9.72826 26.2867V25.6867C9.72559 25.6867 9.7235 25.6866 9.72188 25.6865L9.68581 26.2854ZM9.72826 26.2867C10.1023 26.2867 10.4142 25.9943 10.4363 25.6172L9.83729 25.5822C9.8338 25.6419 9.78463 25.6867 9.72826 25.6867V26.2867ZM10.4363 25.6173L10.6711 21.6106L10.0721 21.5755L9.83729 25.5822L10.4363 25.6173ZM10.3716 21.8931H10.8353V21.2931H10.3716V21.8931ZM10.5358 21.6106L10.7707 25.6173L11.3696 25.5822L11.1348 21.5755L10.5358 21.6106ZM10.7707 25.6172C10.7927 25.9943 11.1047 26.2867 11.4787 26.2867V25.6867C11.4223 25.6867 11.3731 25.6419 11.3696 25.5822L10.7707 25.6172ZM11.4787 26.2867C11.4922 26.2867 11.5064 26.2863 11.5211 26.2854L11.4851 25.6865C11.4834 25.6866 11.4813 25.6867 11.4787 25.6867V26.2867ZM11.5208 26.2854C11.913 26.2623 12.2104 25.9248 12.1875 25.5339L11.5885 25.569C11.5921 25.6313 11.5449 25.683 11.4854 25.6865L11.5208 26.2854ZM12.1875 25.5339L11.9408 21.325L11.3418 21.3601L11.5885 25.569L12.1875 25.5339ZM11.8542 21.5539C12.0291 21.3777 12.1466 21.1449 12.179 20.8863L11.5837 20.8117C11.5681 20.9359 11.5119 21.047 11.4284 21.1312L11.8542 21.5539ZM11.6689 21.0608L11.9249 21.3177L12.3499 20.8942L12.0939 20.6372L11.6689 21.0608ZM11.9249 21.3177C12.141 21.5346 12.4325 21.6551 12.7362 21.6551V21.0551C12.5919 21.0551 12.4534 20.9981 12.3499 20.8942L11.9249 21.3177ZM12.7362 21.6551C12.768 21.6551 12.7998 21.6538 12.8316 21.6511L12.7814 21.0532C12.7662 21.0545 12.7511 21.0551 12.7362 21.0551V21.6551ZM12.8313 21.6511C13.1684 21.6232 13.4744 21.4484 13.6706 21.1729L13.1818 20.825C13.0878 20.957 12.9421 21.0399 12.7817 21.0532L12.8313 21.6511ZM13.6706 21.1729L15.5592 18.5195L15.0704 18.1716L13.1817 20.825L13.6706 21.1729ZM15.5592 18.5196C15.7303 18.2793 15.7353 17.9582 15.5723 17.7126L15.0724 18.0445C15.0981 18.0832 15.0972 18.1339 15.0705 18.1715L15.5592 18.5196ZM15.5722 17.7126L14.9325 16.7495L14.4327 17.0815L15.0725 18.0446L15.5722 17.7126ZM14.9325 16.7496C14.7387 16.4577 14.4359 16.2815 14.113 16.2432L14.0424 16.8391C14.1947 16.8571 14.3386 16.9398 14.4327 17.0815L14.9325 16.7496ZM14.3777 16.5411V15.1264H13.7777V16.5411H14.3777ZM14.2627 15.3626C14.4426 15.2218 14.616 15.0699 14.7816 14.9067L14.3604 14.4794C14.2115 14.6262 14.0552 14.763 13.8928 14.8902L14.2627 15.3626ZM14.7816 14.9067C15.9324 13.7728 16.5668 12.2554 16.5668 10.6375H15.9668C15.9668 12.0951 15.3966 13.4584 14.3604 14.4794L14.7816 14.9067ZM16.5668 10.6375V8.93067H15.9668V10.6375H16.5668ZM16.5579 9.00318L16.7481 8.23947L16.1659 8.09445L15.9757 8.85816L16.5579 9.00318ZM16.7481 8.23949C16.9182 7.55662 17.0045 6.85335 17.0045 6.14907H16.4045C16.4045 6.80448 16.3242 7.45904 16.1659 8.09443L16.7481 8.23949ZM17.0045 6.14907V2.72916H16.4045V6.14907H17.0045ZM17.0045 2.7292C17.0046 1.61097 16.0983 0.7 14.9816 0.7V1.3C15.765 1.3 16.4046 1.94034 16.4045 2.72913L17.0045 2.7292ZM8.27778 20.3128C8.28782 20.3027 8.31184 20.28 8.34907 20.2614C8.38809 20.2419 8.43436 20.2306 8.48354 20.2332L8.45258 20.8324C8.5874 20.8393 8.67265 20.7665 8.7028 20.7363L8.27778 20.3128ZM8.49327 20.2338C8.54604 20.2383 8.59422 20.2581 8.63302 20.2871C8.6511 20.3006 8.66486 20.3143 8.67484 20.3256C8.6845 20.3366 8.69127 20.3462 8.69091 20.3457L8.20392 20.6962C8.22073 20.7196 8.29516 20.8192 8.44285 20.8317L8.49327 20.2338ZM8.69183 20.347L6.96756 17.9245L6.47874 18.2724L8.203 20.6949L8.69183 20.347ZM6.97304 18.2644L7.456 17.5374L6.95623 17.2054L6.47326 17.9324L6.97304 18.2644ZM7.45584 17.5376C7.37563 17.6581 7.21161 17.6968 7.08488 17.6171L7.40425 17.1091C7.2512 17.0129 7.05354 17.0592 6.95639 17.2051L7.45584 17.5376ZM7.08516 17.6173L9.79042 19.3141L10.1092 18.8058L7.40397 17.109L7.08516 17.6173ZM9.73733 18.8482L8.27779 20.3128L8.70279 20.7363L10.1623 19.2717L9.73733 18.8482ZM11.0413 20.471H10.1657V21.071H11.0413V20.471ZM10.1657 20.471C10.3165 20.471 10.4375 20.5932 10.4375 20.7427H9.83754C9.83754 20.9233 9.9839 21.071 10.1657 21.071V20.471ZM10.4375 20.7427V20.0343H9.83754V20.7427H10.4375ZM10.3501 20.246L10.816 19.7784L10.391 19.3549L9.92504 19.8225L10.3501 20.246ZM10.391 19.7784L10.857 20.246L11.282 19.8225L10.816 19.3549L10.391 19.7784ZM10.7695 20.0343V20.7427H11.3695V20.0343H10.7695ZM10.7695 20.7427C10.7695 20.5943 10.8895 20.471 11.0413 20.471V21.071C11.2244 21.071 11.3695 20.9222 11.3695 20.7427H10.7695ZM10.763 18.2464L8.10796 16.581L7.78915 17.0893L10.4442 18.7546L10.763 18.2464ZM8.24856 16.8352V15.6309H7.64856V16.8352H8.24856ZM7.80293 15.8932C8.60796 16.3401 9.5227 16.602 10.4922 16.6198L10.5032 16.0199C9.63605 16.004 8.81708 15.77 8.09418 15.3686L7.80293 15.8932ZM10.4922 16.6198C10.5298 16.6205 10.5672 16.6209 10.6047 16.6209V16.0209C10.5709 16.0209 10.5371 16.0206 10.5032 16.0199L10.4922 16.6198ZM10.6047 16.6209C11.5942 16.6208 12.5481 16.3804 13.3999 15.9254L13.1173 15.3961C12.3528 15.8044 11.4962 16.0208 10.6047 16.0209L10.6047 16.6209ZM12.9586 15.6607V16.8342H13.5586V15.6607H12.9586ZM12.9586 16.8342C12.9586 16.8423 12.9589 16.8487 12.9591 16.8521C12.9592 16.854 12.9593 16.8554 12.9594 16.8563C12.9594 16.8568 12.9595 16.8572 12.9595 16.8574C12.9595 16.8575 12.9595 16.8576 12.9595 16.8577C12.9595 16.8577 12.9595 16.8578 12.9595 16.8578C12.9596 16.8584 12.9593 16.8557 12.9592 16.8527C12.959 16.8494 12.9587 16.8432 12.9587 16.8352H13.5587C13.5587 16.8272 13.5583 16.8207 13.5581 16.8173C13.558 16.8155 13.5579 16.814 13.5578 16.8131C13.5578 16.8127 13.5578 16.8123 13.5578 16.8121C13.5578 16.8119 13.5578 16.8118 13.5577 16.8118C13.5577 16.8117 13.5577 16.8117 13.5577 16.8117C13.5577 16.8111 13.5579 16.8137 13.5581 16.8168C13.5583 16.82 13.5586 16.8263 13.5586 16.8342H12.9586ZM13.0993 16.5811L10.4442 18.2464L10.763 18.7547L13.4181 17.0894L13.0993 16.5811ZM14.2395 17.9245L12.5152 20.3471L13.004 20.695L14.7284 18.2724L14.2395 17.9245ZM12.5155 20.3467C12.5155 20.3467 12.5223 20.337 12.5321 20.3259C12.5421 20.3145 12.5559 20.3008 12.5739 20.2873C12.6126 20.2584 12.6608 20.2384 12.7138 20.2339L12.7644 20.8317C12.9121 20.8192 12.9865 20.7196 13.0037 20.6955L12.5155 20.3467ZM12.7235 20.2332C12.7688 20.2309 12.817 20.2403 12.8618 20.2636C12.9039 20.2854 12.9305 20.314 12.9294 20.3128L12.5044 20.7363C12.5026 20.7346 12.5135 20.7459 12.5271 20.7573C12.5418 20.7695 12.5613 20.7836 12.5857 20.7963C12.6376 20.8231 12.6957 20.8355 12.7547 20.8324L12.7235 20.2332ZM12.9294 20.3128L11.4698 18.8482L11.0448 19.2718L12.5044 20.7364L12.9294 20.3128ZM11.4167 19.3141L14.122 17.6173L13.8032 17.109L11.0979 18.8058L11.4167 19.3141ZM14.1218 17.6174C13.9967 17.6958 13.8328 17.6601 13.7513 17.5377L14.2507 17.2052C14.1525 17.0576 13.954 17.0146 13.8034 17.1089L14.1218 17.6174ZM13.7511 17.5374L14.2341 18.2645L14.7338 17.9325L14.2509 17.2054L13.7511 17.5374ZM15.5854 6.14907C15.5854 6.73729 15.5133 7.32475 15.3712 7.89507L15.9534 8.04017C16.1074 7.42235 16.1854 6.78615 16.1854 6.14907H15.5854ZM15.3712 7.89511L15.1687 8.70793L15.7509 8.85295L15.9534 8.04013L15.3712 7.89511ZM15.1686 8.70826C15.1548 8.76408 15.1476 8.82174 15.1476 8.88008H15.7476C15.7476 8.87122 15.7487 8.86201 15.751 8.85261L15.1686 8.70826ZM15.1476 8.88008V10.6375H15.7476V8.88008H15.1476ZM15.1476 10.6375C15.1476 11.8726 14.6646 13.0275 13.7865 13.8927L14.2076 14.3201C15.2003 13.3419 15.7476 12.033 15.7476 10.6375H15.1476ZM13.7865 13.8927C12.9087 14.7576 11.7475 15.2219 10.5184 15.1979L10.5067 15.7977C11.8981 15.8249 13.2152 15.298 14.2076 14.3201L13.7865 13.8927ZM10.5181 15.1979C8.07161 15.1529 6.05946 13.0385 6.05946 10.4626H5.45946C5.45946 13.3433 7.71179 15.7464 10.5071 15.7978L10.5181 15.1979ZM6.05946 10.4626V8.88008H5.45946V10.4626H6.05946ZM6.05946 8.88008C6.05946 8.82213 6.0524 8.7642 6.03827 8.70769L5.45618 8.85319C5.45833 8.86179 5.45946 8.87084 5.45946 8.88008H6.05946ZM6.03833 8.70793L5.83588 7.89506L5.25366 8.04007L5.45612 8.85294L6.03833 8.70793ZM5.83587 7.89503C5.69372 7.32459 5.62167 6.73712 5.62167 6.14907H5.02167C5.02167 6.78599 5.09969 7.42218 5.25367 8.04011L5.83587 7.89503ZM5.62167 6.14907V4.9259H5.02167V6.14907H5.62167ZM5.62167 4.9259C5.62167 3.93113 6.39747 3.08883 7.38322 3.00928L7.33496 2.41123C6.03582 2.51606 5.02167 3.62023 5.02167 4.9259H5.62167ZM7.38318 3.00928C7.56622 2.99454 7.73609 2.90932 7.85751 2.77202L7.40804 2.37455C7.38909 2.39598 7.36289 2.40898 7.33501 2.41122L7.38318 3.00928ZM7.85756 2.77195C8.22312 2.35833 8.74561 2.12213 9.29002 2.12213V1.52213C8.57184 1.52213 7.88623 1.83347 7.40798 2.37462L7.85756 2.77195ZM9.29002 2.12213H14.9816V1.52213H9.29002V2.12213ZM14.9816 2.12213C15.3132 2.12213 15.5854 2.39371 15.5854 2.72916H16.1854C16.1854 2.06436 15.6466 1.52213 14.9816 1.52213V2.12213ZM15.5854 2.72916V6.14907H16.1854V2.72916H15.5854ZM14.9379 17.9437L17.8983 19.024L18.104 18.4604L15.1436 17.3801L14.9379 17.9437ZM17.8984 19.024C18.975 19.4169 19.7 20.4547 19.7 21.6059H20.3C20.3 20.2038 19.4185 18.94 18.104 18.4604L17.8984 19.024ZM19.7 21.6059V25.4711H20.3V21.6059H19.7ZM19.7 25.4711C19.7 25.5335 19.65 25.5821 19.5904 25.5821V26.1821C19.9833 26.1821 20.3 25.8628 20.3 25.4711H19.7ZM19.5904 25.5821C19.5308 25.5821 19.4808 25.5335 19.4808 25.4711H18.8808C18.8808 25.8628 19.1974 26.1821 19.5904 26.1821V25.5821ZM19.4808 25.4711V21.6059H18.8808V25.4711H19.4808ZM19.4808 21.6059C19.4808 20.5482 18.816 19.5949 17.824 19.2331L17.6184 19.7967C18.3725 20.0718 18.8808 20.7992 18.8808 21.6059H19.4808ZM17.8241 19.2331L15.0298 18.2134L14.8241 18.777L17.6184 19.7967L17.8241 19.2331ZM15.2242 18.5358L15.338 17.7025L14.7435 17.6213L14.6297 18.4546L15.2242 18.5358ZM4.92435 22.2509L4.67142 21.7431L4.13436 22.0106L4.38729 22.5184L4.92435 22.2509ZM4.67142 21.7431C4.49655 21.3921 4.07011 21.2485 3.71872 21.425L3.98798 21.9612C4.04129 21.9344 4.10694 21.9556 4.13436 22.0106L4.67142 21.7431ZM3.71884 21.4249C3.36814 21.6008 3.22698 22.0277 3.40165 22.3783L3.93869 22.1108C3.91096 22.0551 3.93387 21.9883 3.98787 21.9612L3.71884 21.4249ZM3.40164 22.3783L3.65457 22.8861L4.19163 22.6185L3.9387 22.1108L3.40164 22.3783ZM3.65458 22.8861C3.72649 23.0304 3.76471 23.1928 3.76471 23.3543H4.36471C4.36471 23.1 4.30496 22.846 4.19161 22.6185L3.65458 22.8861ZM3.76471 23.3543V25.5756H4.36471V23.3543H3.76471ZM3.76471 25.5756C3.76471 25.9673 4.08137 26.2866 4.47433 26.2866V25.6866C4.41474 25.6866 4.36471 25.6379 4.36471 25.5756H3.76471ZM4.47433 26.2866C4.86729 26.2866 5.18395 25.9673 5.18395 25.5756H4.58395C4.58395 25.6379 4.53392 25.6866 4.47433 25.6866V26.2866ZM5.18395 25.5756V23.3543H4.58395V25.5756H5.18395ZM5.18395 23.3543C5.18395 22.973 5.09433 22.5919 4.9243 22.2508L4.38733 22.5185C4.51583 22.7763 4.58395 23.0658 4.58395 23.3543H5.18395ZM16.5705 22.5318L16.8234 22.024L16.2864 21.7565L16.0335 22.2643L16.5705 22.5318ZM16.8234 22.024C16.8509 21.969 16.9165 21.9478 16.9698 21.9745L17.2391 21.4383C16.8877 21.2619 16.4612 21.4054 16.2864 21.7565L16.8234 22.024ZM16.9699 21.9746C17.0239 22.0017 17.0468 22.0685 17.0191 22.1241L17.5561 22.3917C17.7308 22.0411 17.5897 21.6142 17.239 21.4383L16.9699 21.9746ZM17.0191 22.1242L16.7662 22.6319L17.3032 22.8994L17.5562 22.3917L17.0191 22.1242ZM16.7662 22.6319C16.6528 22.8594 16.5931 23.1133 16.5931 23.3677H17.1931C17.1931 23.2062 17.2313 23.0438 17.3032 22.8995L16.7662 22.6319ZM16.5931 23.3677V25.5889H17.1931V23.3677H16.5931ZM16.5931 25.5889C16.5931 25.6513 16.5431 25.7 16.4835 25.7V26.3C16.8764 26.3 17.1931 25.9807 17.1931 25.5889H16.5931ZM16.4835 25.7C16.4239 25.7 16.3739 25.6513 16.3739 25.5889H15.7739C15.7739 25.9807 16.0905 26.3 16.4835 26.3V25.7ZM16.3739 25.5889V23.3677H15.7739V25.5889H16.3739ZM16.3739 23.3677C16.3739 23.0791 16.442 22.7896 16.5705 22.5319L16.0335 22.2642C15.8635 22.6052 15.7739 22.9864 15.7739 23.3677H16.3739Z" fill="white" mask="url(#path-1-outside-1)"/>
</svg>
