<svg width="20" height="19" viewBox="0 0 20 19" fill="none" xmlns="http://www.w3.org/2000/svg">
<path d="M0.393709 18.2213H0.38835C0.173903 18.2213 0 18.3956 0 18.6107C0 18.8257 0.173903 19 0.38835 19H0.393709C0.608155 19 0.782058 18.8257 0.782058 18.6107C0.782058 18.3956 0.608155 18.2213 0.393709 18.2213Z" fill="white"/>
<path d="M18.7798 13.1761C18.7742 13.1742 18.7685 13.1723 18.7628 13.1706L15.5497 12.2149C15.4631 12.1827 15.4023 12.1229 15.395 12.0646V11.1093C15.395 11.0964 15.3943 11.0837 15.3931 11.0712L16.618 10.367C16.6251 10.363 16.632 10.3587 16.6388 10.3541C17.201 9.98189 17.5703 9.31903 17.6266 8.58095C17.6274 8.57106 17.6277 8.56117 17.6277 8.55125V8.1475C18.1963 7.9791 18.6124 7.45088 18.6124 6.82703C18.6124 6.50228 18.4994 6.20358 18.3111 5.96791C18.4853 6.02323 18.6571 6.08089 18.8249 6.14229C18.8684 6.15826 18.9134 6.16593 18.958 6.16593C19.0769 6.16593 19.1921 6.11115 19.2671 6.01241C19.3702 5.87665 19.3731 5.68937 19.2743 5.55045L17.4768 3.02454V1.13809C17.4768 0.97667 17.3774 0.831951 17.227 0.774367C17.1443 0.742752 15.1821 0 13.283 0C11.3839 0 9.42171 0.742752 9.33911 0.774367C9.1887 0.831951 9.08928 0.97667 9.08928 1.13809V3.02513L7.29996 5.55127C7.20151 5.69027 7.2047 5.87735 7.30784 6.01284C7.41099 6.14841 7.59014 6.20089 7.74983 6.14241C7.91383 6.08237 8.08183 6.02596 8.25204 5.97172C8.06548 6.20681 7.95367 6.50407 7.95367 6.82711C7.95367 7.45096 8.36979 7.97922 8.93833 8.14757V8.55132C8.93833 8.56121 8.93872 8.5711 8.93946 8.58099C8.99592 9.32219 9.36256 9.98508 9.92012 10.3542C9.92707 10.3588 9.93414 10.3632 9.9414 10.3673L11.1805 11.0775C11.1797 11.088 11.1789 11.0986 11.1789 11.1093V11.8907C11.1749 11.913 11.1725 11.9358 11.1725 11.9592V12.0531C11.1725 12.1148 11.1086 12.1807 11.0163 12.2149L7.80039 13.1706C7.79464 13.1723 7.78885 13.1742 7.78319 13.1762C7.06486 13.4266 6.56311 14.1041 6.56311 14.8236V18.2213H4.07767V14.4057H4.81553C5.56501 14.4057 6.17476 13.7944 6.17476 13.043V7.70738C6.17476 7.49235 6.00085 7.31804 5.78641 7.31804C5.57196 7.31804 5.39806 7.49235 5.39806 7.70738V13.043C5.39806 13.3651 5.13674 13.627 4.81553 13.627H4.41604V7.67129C4.41604 7.45625 4.24214 7.28194 4.02769 7.28194C3.81324 7.28194 3.63934 7.45625 3.63934 7.67129V13.627H2.65728V7.67129C2.65728 7.45625 2.48338 7.28194 2.26893 7.28194C2.05449 7.28194 1.88058 7.45625 1.88058 7.67129V13.627H1.47573C1.15452 13.627 0.893204 13.3651 0.893204 13.043V7.70738C0.893204 7.49235 0.719301 7.31804 0.504854 7.31804C0.290408 7.31804 0.116505 7.49235 0.116505 7.70738V13.043C0.116505 13.7944 0.726252 14.4057 1.47573 14.4057H2.21359V18.2213H1.66932C1.45487 18.2213 1.28097 18.3956 1.28097 18.6107C1.28097 18.8257 1.45487 19 1.66932 19H19.6117C19.8261 19 20 18.8257 20 18.6107C20 18.5644 20 14.8236 20 14.8236C20 14.1041 19.4983 13.4266 18.7798 13.1761ZM3.30097 18.2213H2.99029V14.4057H3.30097V18.2213ZM9.86602 1.41371C10.4385 1.22087 11.9019 0.778688 13.283 0.778688C14.6611 0.778688 16.1269 1.22114 16.7 1.4139V2.66023C16.0779 2.53599 14.8857 2.35623 13.1923 2.35623C11.5535 2.35623 10.4542 2.5254 9.86602 2.65011V1.41371ZM9.71553 3.48595C10.0672 3.39278 11.2192 3.13492 13.1923 3.13492C15.1866 3.13492 16.4657 3.39843 16.8547 3.49133L17.9672 5.05466C16.539 4.66699 14.9438 4.46457 13.2873 4.46457C11.6293 4.46457 10.0328 4.66734 8.60361 5.05571L9.71553 3.48595ZM10.3385 9.69794C9.98847 9.46118 9.75639 9.02847 9.71507 8.53579V7.81429C9.71507 7.59926 9.54117 7.42495 9.32672 7.42495C8.9979 7.42495 8.73041 7.15677 8.73041 6.82711C8.73041 6.49745 8.99794 6.22927 9.32672 6.22927C9.53379 6.22927 9.70447 6.06637 9.7146 5.85905L9.72781 5.58931C10.8438 5.36154 12.0461 5.2433 13.2873 5.2433C14.53 5.2433 15.7338 5.36182 16.851 5.59013V5.83993C16.851 6.05497 17.0249 6.22927 17.2393 6.22927C17.5682 6.22927 17.8356 6.49745 17.8356 6.82711C17.8356 7.15677 17.5681 7.42495 17.2393 7.42495C17.0249 7.42495 16.851 7.59926 16.851 7.81429V8.53571C16.8098 9.02558 16.575 9.45834 16.2203 9.69806L13.8584 11.0558C13.8513 11.0599 13.8444 11.0642 13.8376 11.0687C13.4903 11.2986 13.0758 11.2985 12.7285 11.0687C12.7216 11.0641 12.7145 11.0597 12.7073 11.0555L10.3385 9.69794ZM14.6182 12.0876V12.3393L13.2887 13.6662L11.9556 12.339V11.5217L12.3115 11.7257C12.6118 11.9215 12.9474 12.0194 13.2831 12.0194C13.6188 12.0194 13.9545 11.9214 14.2548 11.7255L14.6182 11.5166V11.9306C14.6175 11.9401 14.6168 11.9496 14.6168 11.9592V12.0531C14.6168 12.0647 14.6177 12.0761 14.6182 12.0876ZM8.38672 18.2213H7.33981V14.8236C7.33981 14.445 7.63619 14.0556 8.03056 13.9144L8.38672 13.8086V18.2213ZM17.3981 18.2213H16.9439V15.4821C16.9439 15.267 16.77 15.0927 16.5556 15.0927C16.3411 15.0927 16.1672 15.267 16.1672 15.4821V18.2213H10.3943V15.4821C10.3943 15.267 10.2203 15.0927 10.0059 15.0927C9.79146 15.0927 9.61755 15.267 9.61755 15.4821V18.2213H9.16342V13.5778L11.2473 12.9585C11.2531 12.9568 11.2589 12.9549 11.2645 12.9529C11.3147 12.9354 11.3626 12.9147 11.4083 12.8915L13.0153 14.4915C13.0911 14.5669 13.19 14.6045 13.289 14.6045C13.3881 14.6045 13.4872 14.5667 13.563 14.4911L15.1632 12.894C15.2073 12.9162 15.2533 12.9361 15.3015 12.9529C15.3072 12.9549 15.3129 12.9567 15.3186 12.9584L17.3981 13.5769V18.2213ZM19.2233 18.2213H18.1748V13.8079L18.5325 13.9143C18.9269 14.0556 19.2233 14.445 19.2233 14.8236V18.2213Z" fill="white"/>
<path d="M14.8862 6.43777C14.6435 6.43777 14.4461 6.63571 14.4461 6.87901C14.4461 7.12231 14.6435 7.32026 14.8862 7.32026C15.1289 7.32026 15.3263 7.12231 15.3263 6.87901C15.3263 6.63571 15.1289 6.43777 14.8862 6.43777Z" fill="white"/>
<path d="M11.6799 6.43777C11.4372 6.43777 11.2398 6.63571 11.2398 6.87901C11.2398 7.12231 11.4372 7.32026 11.6799 7.32026C11.9226 7.32026 12.12 7.12231 12.12 6.87901C12.12 6.63571 11.9226 6.43777 11.6799 6.43777Z" fill="white"/>
<path d="M10.0059 13.9217C9.79146 13.9217 9.61755 14.096 9.61755 14.311V14.3165C9.61755 14.5316 9.79146 14.7059 10.0059 14.7059C10.2203 14.7059 10.3943 14.5316 10.3943 14.3165V14.311C10.3943 14.096 10.2203 13.9217 10.0059 13.9217Z" fill="white"/>
<path d="M16.5556 13.9217C16.3411 13.9217 16.1672 14.096 16.1672 14.311V14.3165C16.1672 14.5316 16.3411 14.7059 16.5556 14.7059C16.77 14.7059 16.9439 14.5316 16.9439 14.3165V14.311C16.9439 14.096 16.77 13.9217 16.5556 13.9217Z" fill="white"/>
<path d="M13.9669 8.69328C13.8345 8.53707 13.6055 8.51173 13.4428 8.63048C13.4299 8.63643 13.3793 8.65645 13.2831 8.65645C13.1909 8.65645 13.1426 8.63819 13.1294 8.63231C12.9687 8.51305 12.741 8.53536 12.6068 8.68868C12.4653 8.8503 12.4814 9.09629 12.6425 9.23813C12.6951 9.28434 12.8965 9.43513 13.2831 9.43513C13.6664 9.4351 13.8695 9.28738 13.9226 9.2421C14.086 9.10279 14.1059 8.85708 13.9669 8.69328Z" fill="white"/>
</svg>
