<svg width="47" height="47" viewBox="0 0 47 47" fill="none" xmlns="http://www.w3.org/2000/svg">
<mask id="path-1-outside-1" maskUnits="userSpaceOnUse" x="0" y="0" width="47" height="47" fill="black">
<rect fill="white" width="47" height="47"/>
<path d="M43 9.99999C41.3455 9.99999 40.0001 11.3455 40.0001 13C40.0001 14.6544 41.3456 15.9999 43 15.9999C44.6545 15.9999 46 14.6545 46 13C46 11.3455 44.6545 9.99999 43 9.99999ZM43 14.5C42.1728 14.5 41.5 13.8273 41.5 13C41.5 12.1727 42.1727 11.4999 43 11.4999C43.8273 11.4999 44.5001 12.1726 44.5001 13C44.5 13.8273 43.8273 14.5 43 14.5Z"/>
<path d="M3.99997 34.75C2.34552 34.75 1 36.0955 1 37.75C1 39.4044 2.34552 40.7499 3.99997 40.7499C5.65451 40.7499 6.99994 39.4044 6.99994 37.75C6.99994 36.0955 5.65451 34.75 3.99997 34.75ZM3.99997 39.25C3.17274 39.25 2.49994 38.5773 2.49994 37.75C2.49994 36.9226 3.17266 36.2499 3.99997 36.2499C4.8272 36.2499 5.5 36.9226 5.5 37.75C5.5 38.5773 4.82729 39.25 3.99997 39.25Z"/>
<path d="M41.5458 10.948L35.0756 7.82425C34.702 7.64346 34.2543 7.80096 34.0743 8.17379C33.8943 8.54654 34.051 8.99504 34.4239 9.17504L40.8941 12.2988C40.9991 12.3497 41.1101 12.3737 41.2196 12.3737C41.4985 12.3737 41.7663 12.2177 41.8953 11.9492C42.0753 11.5765 41.9185 11.128 41.5458 10.948Z"/>
<path d="M34.75 40C33.0955 40 31.75 41.3455 31.75 42.9999C31.75 44.6544 33.0955 46 34.75 46C36.4045 46 37.75 44.6545 37.75 43C37.75 41.3456 36.4045 40 34.75 40ZM34.75 44.5C33.9228 44.5 33.25 43.8272 33.25 42.9999C33.25 42.1726 33.9228 41.5 34.75 41.5C35.5772 41.5 36.25 42.1727 36.25 43C36.25 43.8273 35.5772 44.5 34.75 44.5Z"/>
<path d="M33.2958 40.948L26.8255 37.8243C26.452 37.6435 26.0043 37.8003 25.8243 38.1739C25.6443 38.5466 25.801 38.9951 26.1738 39.1751L32.6441 42.2988C32.7491 42.3498 32.8601 42.3738 32.9695 42.3738C33.2485 42.3738 33.5163 42.2178 33.6453 41.9493C33.8252 41.5765 33.6685 41.128 33.2958 40.948Z"/>
<path d="M23.5 21.25C21.8455 21.25 20.5 22.5955 20.5 24.25C20.5 25.9045 21.8455 27.2499 23.5 27.2499C25.1545 27.2499 26.5 25.9044 26.5 24.25C26.5 22.5955 25.1545 21.25 23.5 21.25ZM23.5 25.75C22.6728 25.75 22 25.0773 22 24.25C22 23.4227 22.6727 22.7499 23.5 22.7499C24.3272 22.7499 25 23.4226 25 24.25C25 25.0773 24.3272 25.75 23.5 25.75Z"/>
<path d="M22.1815 22.282L17.2113 18.4082C16.8842 18.1555 16.4133 18.2117 16.1582 18.5387C15.904 18.8658 15.9617 19.3367 16.2888 19.5918L21.259 23.4655C21.3963 23.5721 21.5582 23.6238 21.7195 23.6238C21.943 23.6238 22.1635 23.5249 22.312 23.3351C22.5663 23.008 22.5085 22.537 22.1815 22.282Z"/>
<path d="M37 20.5C32.4512 20.5 28.75 24.2013 28.75 28.75C28.75 33.2988 32.4512 37.0001 37 37.0001C41.5488 37.0001 45.25 33.2988 45.25 28.75C45.25 24.2013 41.5488 20.5 37 20.5ZM37 35.5C33.2777 35.5 30.25 32.4722 30.25 28.75C30.25 25.0277 33.2777 22 37 22C40.7223 22 43.75 25.0277 43.75 28.75C43.75 32.4722 40.7223 35.5 37 35.5Z"/>
<path d="M37 23.5C35.3455 23.5 34 24.8455 34 26.5C34 28.1545 35.3456 29.4999 37 29.4999C38.6546 29.4999 40 28.1544 40 26.5C40 24.8455 38.6546 23.5 37 23.5ZM37 28C36.1728 28 35.5 27.3273 35.5 26.5C35.5 25.6727 36.1727 24.9999 37 24.9999C37.8272 24.9999 38.5 25.6726 38.5 26.5C38.5 27.3273 37.8272 28 37 28Z"/>
<path d="M39.1757 31H34.8243C33.5426 31 32.5 32.0147 32.5 33.2612V35.2382C32.5 35.5059 32.6425 35.7534 32.8742 35.8877C34.1312 36.6152 35.5577 37.0001 37 37.0001C38.4423 37.0001 39.8688 36.6152 41.1258 35.8877C41.3575 35.7542 41.5 35.5059 41.5 35.239V33.262C41.5 32.0147 40.4575 31 39.1757 31ZM40 34.7912C38.1333 35.7212 35.8667 35.7212 33.9999 34.7912V33.262C33.9999 32.842 34.3697 32.5 34.8242 32.5H39.1756C39.6301 32.5 39.9999 32.842 39.9999 33.262V34.7912H40Z"/>
<path d="M19 29.5C14.4512 29.5 10.75 33.2013 10.75 37.7501C10.75 42.2988 14.4512 46 19 46C23.5488 46 27.25 42.2987 27.25 37.75C27.25 33.2012 23.5488 29.5 19 29.5ZM19 44.5C15.2778 44.5 12.25 41.4722 12.25 37.75C12.25 34.0277 15.2778 31 19 31C22.7223 31 25.75 34.0277 25.75 37.75C25.75 41.4722 22.7223 44.5 19 44.5Z"/>
<path d="M19 32.5C17.3455 32.5 16 33.8455 16 35.5C16 37.1545 17.3456 38.4999 19 38.4999C20.6545 38.4999 22 37.1544 22 35.5C22 33.8455 20.6545 32.5 19 32.5ZM19 37C18.1728 37 17.5 36.3273 17.5 35.5C17.5 34.6727 18.1727 33.9999 19 33.9999C19.8272 33.9999 20.5 34.6726 20.5 35.5C20.5 36.3273 19.8272 37 19 37Z"/>
<path d="M21.1757 40H16.8243C15.5426 40 14.5 41.0147 14.5 42.2612V44.2382C14.5 44.5059 14.6425 44.7534 14.8743 44.8877C16.1313 45.6152 17.5577 46 19 46C20.4423 46 21.8688 45.6152 23.1258 44.8877C23.3575 44.7542 23.5 44.506 23.5 44.239V42.262C23.5 41.0147 22.4575 40 21.1757 40ZM22 43.7912C20.1332 44.7212 17.8668 44.7212 16 43.7912V42.262C16 41.842 16.3697 41.5 16.8242 41.5H21.1757C21.6301 41.5 21.9999 41.842 21.9999 42.262L22 43.7912Z"/>
<path d="M9.25003 10.75C4.70125 10.75 1 14.4512 1 19C1 23.5488 4.70125 27.25 9.25003 27.25C13.7988 27.25 17.5001 23.5488 17.5001 19C17.5 14.4512 13.7987 10.75 9.25003 10.75ZM9.25003 25.75C5.52777 25.75 2.50003 22.7223 2.50003 19C2.50003 15.2778 5.52777 12.25 9.25003 12.25C12.9723 12.25 16 15.2778 16 19C16 22.7223 12.9723 25.75 9.25003 25.75Z"/>
<path d="M9.25002 13.75C7.59548 13.75 6.25005 15.0955 6.25005 16.75C6.25005 18.4044 7.59557 19.75 9.25002 19.75C10.9046 19.75 12.25 18.4044 12.25 16.75C12.25 15.0955 10.9045 13.75 9.25002 13.75ZM9.25002 18.25C8.42279 18.25 7.74999 17.5773 7.74999 16.75C7.74999 15.9227 8.42271 15.25 9.25002 15.25C10.0772 15.25 10.7501 15.9227 10.7501 16.75C10.7501 17.5773 10.0772 18.25 9.25002 18.25Z"/>
<path d="M11.4258 21.25H7.0743C5.79259 21.25 4.75003 22.2648 4.75003 23.5112V25.4882C4.75003 25.756 4.8925 26.0035 5.12427 26.1378C6.38128 26.8652 7.80775 27.25 9.25003 27.25C10.6923 27.25 12.1188 26.8652 13.3758 26.1378C13.6076 26.0043 13.75 25.756 13.75 25.489V23.512C13.75 22.2648 12.7075 21.25 11.4258 21.25ZM12.25 25.0412C10.3833 25.9712 8.11677 25.9712 6.24997 25.0412V23.512C6.24997 23.092 6.61973 22.75 7.07421 22.75H11.4257C11.8802 22.75 12.2499 23.092 12.2499 23.512L12.25 25.0412Z"/>
<path d="M27.25 1C22.7013 1 19 4.70125 19 9.25003C19 13.7988 22.7013 17.5001 27.25 17.5001C31.7988 17.5001 35.5001 13.7988 35.5001 9.25003C35.5 4.70125 31.7987 1 27.25 1ZM27.25 16C23.5278 16 20.5 12.9723 20.5 9.25003C20.5 5.52777 23.5278 2.50003 27.25 2.50003C30.9723 2.50003 34 5.52777 34 9.25003C34 12.9723 30.9723 16 27.25 16Z"/>
<path d="M27.25 3.99997C25.5955 3.99997 24.2501 5.34549 24.2501 6.99994C24.2501 8.6544 25.5956 9.99992 27.25 9.99992C28.9045 9.99992 30.25 8.65449 30.25 7.00003C30.25 5.34558 28.9045 3.99997 27.25 3.99997ZM27.25 8.49997C26.4228 8.49997 25.75 7.82726 25.75 6.99994C25.75 6.17272 26.4227 5.49992 27.25 5.49992C28.0773 5.49992 28.7501 6.17263 28.7501 6.99994C28.75 7.82726 28.0773 8.49997 27.25 8.49997Z"/>
<path d="M29.4258 11.5H25.0743C23.7926 11.5 22.75 12.5148 22.75 13.7613V15.7383C22.75 16.006 22.8925 16.2535 23.1243 16.3878C24.3813 17.1153 25.8078 17.5001 27.25 17.5001C28.6923 17.5001 30.1188 17.1153 31.3758 16.3878C31.6076 16.2543 31.75 16.006 31.75 15.7391V13.7621C31.75 12.5147 30.7075 11.5 29.4258 11.5ZM30.25 15.2913C28.3833 16.2212 26.1168 16.2212 24.25 15.2913V13.7621C24.25 13.342 24.6197 13.0001 25.0742 13.0001H29.4257C29.8802 13.0001 30.2499 13.342 30.2499 13.7621L30.25 15.2913Z"/>
<path d="M20.3207 8.76172C20.0515 8.44821 19.5782 8.41068 19.2632 8.67998L14.0657 13.1275C13.7507 13.3967 13.714 13.87 13.9832 14.185C14.1317 14.3582 14.3417 14.4475 14.5532 14.4475C14.7257 14.4475 14.8989 14.3883 15.0407 14.2667L20.2382 9.81922C20.5533 9.55001 20.59 9.07672 20.3207 8.76172Z"/>
<path d="M36.85 20.8008L32.35 14.8008C32.1017 14.4685 31.6315 14.4032 31.2999 14.6507C30.9684 14.899 30.9017 15.3692 31.1499 15.7L35.6499 21.7C35.7977 21.8965 36.0227 22 36.2507 22C36.4067 22 36.5649 21.9512 36.6999 21.8499C37.0315 21.6017 37.0983 21.1315 36.85 20.8008Z"/>
<path d="M30.6947 31.2302C30.4464 30.8987 29.9762 30.832 29.6447 31.0802L25.4552 34.2219C25.1237 34.4702 25.057 34.9404 25.3052 35.2712C25.4529 35.4677 25.6779 35.5712 25.9059 35.5712C26.0626 35.5712 26.2201 35.5217 26.3552 35.4211L30.5447 32.2794C30.8762 32.0313 30.943 31.561 30.6947 31.2302Z"/>
<path d="M11.5 37H6.24997C5.836 37 5.5 37.3352 5.5 37.75C5.5 38.1647 5.836 38.4999 6.24997 38.4999H11.4999C11.9139 38.4999 12.2499 38.1647 12.2499 37.75C12.2499 37.3352 11.914 37 11.5 37Z"/>
<path d="M9.25002 1C7.59548 1 6.24996 2.34552 6.24996 3.99997C6.24996 5.65451 7.59548 6.99994 9.24994 6.99994C10.9045 6.99994 12.2499 5.65442 12.2499 3.99997C12.25 2.34552 10.9045 1 9.25002 1ZM9.25002 5.5C8.4228 5.5 7.74999 4.82728 7.74999 3.99997C7.74999 3.17274 8.42271 2.49994 9.25002 2.49994C10.0772 2.49994 10.7501 3.17266 10.7501 3.99997C10.75 4.82728 10.0772 5.5 9.25002 5.5Z"/>
<path d="M9.25002 5.5C8.83606 5.5 8.50006 5.83521 8.50006 6.24997V11.4999C8.50006 11.9147 8.83606 12.2499 9.25003 12.2499C9.66399 12.2499 10 11.9147 10 11.4999V6.24997C10 5.83521 9.66399 5.5 9.25002 5.5Z"/>
</mask>
<path d="M43 9.99999C41.3455 9.99999 40.0001 11.3455 40.0001 13C40.0001 14.6544 41.3456 15.9999 43 15.9999C44.6545 15.9999 46 14.6545 46 13C46 11.3455 44.6545 9.99999 43 9.99999ZM43 14.5C42.1728 14.5 41.5 13.8273 41.5 13C41.5 12.1727 42.1727 11.4999 43 11.4999C43.8273 11.4999 44.5001 12.1726 44.5001 13C44.5 13.8273 43.8273 14.5 43 14.5Z" fill="white"/>
<path d="M3.99997 34.75C2.34552 34.75 1 36.0955 1 37.75C1 39.4044 2.34552 40.7499 3.99997 40.7499C5.65451 40.7499 6.99994 39.4044 6.99994 37.75C6.99994 36.0955 5.65451 34.75 3.99997 34.75ZM3.99997 39.25C3.17274 39.25 2.49994 38.5773 2.49994 37.75C2.49994 36.9226 3.17266 36.2499 3.99997 36.2499C4.8272 36.2499 5.5 36.9226 5.5 37.75C5.5 38.5773 4.82729 39.25 3.99997 39.25Z" fill="white"/>
<path d="M41.5458 10.948L35.0756 7.82425C34.702 7.64346 34.2543 7.80096 34.0743 8.17379C33.8943 8.54654 34.051 8.99504 34.4239 9.17504L40.8941 12.2988C40.9991 12.3497 41.1101 12.3737 41.2196 12.3737C41.4985 12.3737 41.7663 12.2177 41.8953 11.9492C42.0753 11.5765 41.9185 11.128 41.5458 10.948Z" fill="white"/>
<path d="M34.75 40C33.0955 40 31.75 41.3455 31.75 42.9999C31.75 44.6544 33.0955 46 34.75 46C36.4045 46 37.75 44.6545 37.75 43C37.75 41.3456 36.4045 40 34.75 40ZM34.75 44.5C33.9228 44.5 33.25 43.8272 33.25 42.9999C33.25 42.1726 33.9228 41.5 34.75 41.5C35.5772 41.5 36.25 42.1727 36.25 43C36.25 43.8273 35.5772 44.5 34.75 44.5Z" fill="white"/>
<path d="M33.2958 40.948L26.8255 37.8243C26.452 37.6435 26.0043 37.8003 25.8243 38.1739C25.6443 38.5466 25.801 38.9951 26.1738 39.1751L32.6441 42.2988C32.7491 42.3498 32.8601 42.3738 32.9695 42.3738C33.2485 42.3738 33.5163 42.2178 33.6453 41.9493C33.8252 41.5765 33.6685 41.128 33.2958 40.948Z" fill="white"/>
<path d="M23.5 21.25C21.8455 21.25 20.5 22.5955 20.5 24.25C20.5 25.9045 21.8455 27.2499 23.5 27.2499C25.1545 27.2499 26.5 25.9044 26.5 24.25C26.5 22.5955 25.1545 21.25 23.5 21.25ZM23.5 25.75C22.6728 25.75 22 25.0773 22 24.25C22 23.4227 22.6727 22.7499 23.5 22.7499C24.3272 22.7499 25 23.4226 25 24.25C25 25.0773 24.3272 25.75 23.5 25.75Z" fill="white"/>
<path d="M22.1815 22.282L17.2113 18.4082C16.8842 18.1555 16.4133 18.2117 16.1582 18.5387C15.904 18.8658 15.9617 19.3367 16.2888 19.5918L21.259 23.4655C21.3963 23.5721 21.5582 23.6238 21.7195 23.6238C21.943 23.6238 22.1635 23.5249 22.312 23.3351C22.5663 23.008 22.5085 22.537 22.1815 22.282Z" fill="white"/>
<path d="M37 20.5C32.4512 20.5 28.75 24.2013 28.75 28.75C28.75 33.2988 32.4512 37.0001 37 37.0001C41.5488 37.0001 45.25 33.2988 45.25 28.75C45.25 24.2013 41.5488 20.5 37 20.5ZM37 35.5C33.2777 35.5 30.25 32.4722 30.25 28.75C30.25 25.0277 33.2777 22 37 22C40.7223 22 43.75 25.0277 43.75 28.75C43.75 32.4722 40.7223 35.5 37 35.5Z" fill="white"/>
<path d="M37 23.5C35.3455 23.5 34 24.8455 34 26.5C34 28.1545 35.3456 29.4999 37 29.4999C38.6546 29.4999 40 28.1544 40 26.5C40 24.8455 38.6546 23.5 37 23.5ZM37 28C36.1728 28 35.5 27.3273 35.5 26.5C35.5 25.6727 36.1727 24.9999 37 24.9999C37.8272 24.9999 38.5 25.6726 38.5 26.5C38.5 27.3273 37.8272 28 37 28Z" fill="white"/>
<path d="M39.1757 31H34.8243C33.5426 31 32.5 32.0147 32.5 33.2612V35.2382C32.5 35.5059 32.6425 35.7534 32.8742 35.8877C34.1312 36.6152 35.5577 37.0001 37 37.0001C38.4423 37.0001 39.8688 36.6152 41.1258 35.8877C41.3575 35.7542 41.5 35.5059 41.5 35.239V33.262C41.5 32.0147 40.4575 31 39.1757 31ZM40 34.7912C38.1333 35.7212 35.8667 35.7212 33.9999 34.7912V33.262C33.9999 32.842 34.3697 32.5 34.8242 32.5H39.1756C39.6301 32.5 39.9999 32.842 39.9999 33.262V34.7912H40Z" fill="white"/>
<path d="M19 29.5C14.4512 29.5 10.75 33.2013 10.75 37.7501C10.75 42.2988 14.4512 46 19 46C23.5488 46 27.25 42.2987 27.25 37.75C27.25 33.2012 23.5488 29.5 19 29.5ZM19 44.5C15.2778 44.5 12.25 41.4722 12.25 37.75C12.25 34.0277 15.2778 31 19 31C22.7223 31 25.75 34.0277 25.75 37.75C25.75 41.4722 22.7223 44.5 19 44.5Z" fill="white"/>
<path d="M19 32.5C17.3455 32.5 16 33.8455 16 35.5C16 37.1545 17.3456 38.4999 19 38.4999C20.6545 38.4999 22 37.1544 22 35.5C22 33.8455 20.6545 32.5 19 32.5ZM19 37C18.1728 37 17.5 36.3273 17.5 35.5C17.5 34.6727 18.1727 33.9999 19 33.9999C19.8272 33.9999 20.5 34.6726 20.5 35.5C20.5 36.3273 19.8272 37 19 37Z" fill="white"/>
<path d="M21.1757 40H16.8243C15.5426 40 14.5 41.0147 14.5 42.2612V44.2382C14.5 44.5059 14.6425 44.7534 14.8743 44.8877C16.1313 45.6152 17.5577 46 19 46C20.4423 46 21.8688 45.6152 23.1258 44.8877C23.3575 44.7542 23.5 44.506 23.5 44.239V42.262C23.5 41.0147 22.4575 40 21.1757 40ZM22 43.7912C20.1332 44.7212 17.8668 44.7212 16 43.7912V42.262C16 41.842 16.3697 41.5 16.8242 41.5H21.1757C21.6301 41.5 21.9999 41.842 21.9999 42.262L22 43.7912Z" fill="white"/>
<path d="M9.25003 10.75C4.70125 10.75 1 14.4512 1 19C1 23.5488 4.70125 27.25 9.25003 27.25C13.7988 27.25 17.5001 23.5488 17.5001 19C17.5 14.4512 13.7987 10.75 9.25003 10.75ZM9.25003 25.75C5.52777 25.75 2.50003 22.7223 2.50003 19C2.50003 15.2778 5.52777 12.25 9.25003 12.25C12.9723 12.25 16 15.2778 16 19C16 22.7223 12.9723 25.75 9.25003 25.75Z" fill="white"/>
<path d="M9.25002 13.75C7.59548 13.75 6.25005 15.0955 6.25005 16.75C6.25005 18.4044 7.59557 19.75 9.25002 19.75C10.9046 19.75 12.25 18.4044 12.25 16.75C12.25 15.0955 10.9045 13.75 9.25002 13.75ZM9.25002 18.25C8.42279 18.25 7.74999 17.5773 7.74999 16.75C7.74999 15.9227 8.42271 15.25 9.25002 15.25C10.0772 15.25 10.7501 15.9227 10.7501 16.75C10.7501 17.5773 10.0772 18.25 9.25002 18.25Z" fill="white"/>
<path d="M11.4258 21.25H7.0743C5.79259 21.25 4.75003 22.2648 4.75003 23.5112V25.4882C4.75003 25.756 4.8925 26.0035 5.12427 26.1378C6.38128 26.8652 7.80775 27.25 9.25003 27.25C10.6923 27.25 12.1188 26.8652 13.3758 26.1378C13.6076 26.0043 13.75 25.756 13.75 25.489V23.512C13.75 22.2648 12.7075 21.25 11.4258 21.25ZM12.25 25.0412C10.3833 25.9712 8.11677 25.9712 6.24997 25.0412V23.512C6.24997 23.092 6.61973 22.75 7.07421 22.75H11.4257C11.8802 22.75 12.2499 23.092 12.2499 23.512L12.25 25.0412Z" fill="white"/>
<path d="M27.25 1C22.7013 1 19 4.70125 19 9.25003C19 13.7988 22.7013 17.5001 27.25 17.5001C31.7988 17.5001 35.5001 13.7988 35.5001 9.25003C35.5 4.70125 31.7987 1 27.25 1ZM27.25 16C23.5278 16 20.5 12.9723 20.5 9.25003C20.5 5.52777 23.5278 2.50003 27.25 2.50003C30.9723 2.50003 34 5.52777 34 9.25003C34 12.9723 30.9723 16 27.25 16Z" fill="white"/>
<path d="M27.25 3.99997C25.5955 3.99997 24.2501 5.34549 24.2501 6.99994C24.2501 8.6544 25.5956 9.99992 27.25 9.99992C28.9045 9.99992 30.25 8.65449 30.25 7.00003C30.25 5.34558 28.9045 3.99997 27.25 3.99997ZM27.25 8.49997C26.4228 8.49997 25.75 7.82726 25.75 6.99994C25.75 6.17272 26.4227 5.49992 27.25 5.49992C28.0773 5.49992 28.7501 6.17263 28.7501 6.99994C28.75 7.82726 28.0773 8.49997 27.25 8.49997Z" fill="white"/>
<path d="M29.4258 11.5H25.0743C23.7926 11.5 22.75 12.5148 22.75 13.7613V15.7383C22.75 16.006 22.8925 16.2535 23.1243 16.3878C24.3813 17.1153 25.8078 17.5001 27.25 17.5001C28.6923 17.5001 30.1188 17.1153 31.3758 16.3878C31.6076 16.2543 31.75 16.006 31.75 15.7391V13.7621C31.75 12.5147 30.7075 11.5 29.4258 11.5ZM30.25 15.2913C28.3833 16.2212 26.1168 16.2212 24.25 15.2913V13.7621C24.25 13.342 24.6197 13.0001 25.0742 13.0001H29.4257C29.8802 13.0001 30.2499 13.342 30.2499 13.7621L30.25 15.2913Z" fill="white"/>
<path d="M20.3207 8.76172C20.0515 8.44821 19.5782 8.41068 19.2632 8.67998L14.0657 13.1275C13.7507 13.3967 13.714 13.87 13.9832 14.185C14.1317 14.3582 14.3417 14.4475 14.5532 14.4475C14.7257 14.4475 14.8989 14.3883 15.0407 14.2667L20.2382 9.81922C20.5533 9.55001 20.59 9.07672 20.3207 8.76172Z" fill="white"/>
<path d="M36.85 20.8008L32.35 14.8008C32.1017 14.4685 31.6315 14.4032 31.2999 14.6507C30.9684 14.899 30.9017 15.3692 31.1499 15.7L35.6499 21.7C35.7977 21.8965 36.0227 22 36.2507 22C36.4067 22 36.5649 21.9512 36.6999 21.8499C37.0315 21.6017 37.0983 21.1315 36.85 20.8008Z" fill="white"/>
<path d="M30.6947 31.2302C30.4464 30.8987 29.9762 30.832 29.6447 31.0802L25.4552 34.2219C25.1237 34.4702 25.057 34.9404 25.3052 35.2712C25.4529 35.4677 25.6779 35.5712 25.9059 35.5712C26.0626 35.5712 26.2201 35.5217 26.3552 35.4211L30.5447 32.2794C30.8762 32.0313 30.943 31.561 30.6947 31.2302Z" fill="white"/>
<path d="M11.5 37H6.24997C5.836 37 5.5 37.3352 5.5 37.75C5.5 38.1647 5.836 38.4999 6.24997 38.4999H11.4999C11.9139 38.4999 12.2499 38.1647 12.2499 37.75C12.2499 37.3352 11.914 37 11.5 37Z" fill="white"/>
<path d="M9.25002 1C7.59548 1 6.24996 2.34552 6.24996 3.99997C6.24996 5.65451 7.59548 6.99994 9.24994 6.99994C10.9045 6.99994 12.2499 5.65442 12.2499 3.99997C12.25 2.34552 10.9045 1 9.25002 1ZM9.25002 5.5C8.4228 5.5 7.74999 4.82728 7.74999 3.99997C7.74999 3.17274 8.42271 2.49994 9.25002 2.49994C10.0772 2.49994 10.7501 3.17266 10.7501 3.99997C10.75 4.82728 10.0772 5.5 9.25002 5.5Z" fill="white"/>
<path d="M9.25002 5.5C8.83606 5.5 8.50006 5.83521 8.50006 6.24997V11.4999C8.50006 11.9147 8.83606 12.2499 9.25003 12.2499C9.66399 12.2499 10 11.9147 10 11.4999V6.24997C10 5.83521 9.66399 5.5 9.25002 5.5Z" fill="white"/>
<path d="M44.5001 13L44.6001 13V13H44.5001ZM41.5458 10.948L41.5893 10.8579L41.5893 10.8579L41.5458 10.948ZM35.0756 7.82425L35.032 7.91426L35.0321 7.91431L35.0756 7.82425ZM34.0743 8.17379L34.1644 8.21728L34.1644 8.21727L34.0743 8.17379ZM34.4239 9.17504L34.3804 9.2651L34.4239 9.17504ZM40.8941 12.2988L40.9378 12.2088L40.9376 12.2087L40.8941 12.2988ZM41.8953 11.9492L41.8052 11.9057L41.8051 11.9059L41.8953 11.9492ZM33.2958 40.948L33.3393 40.858L33.3393 40.858L33.2958 40.948ZM26.8255 37.8243L26.782 37.9143L26.7821 37.9144L26.8255 37.8243ZM25.8243 38.1739L25.9143 38.2173L25.9144 38.2173L25.8243 38.1739ZM26.1738 39.1751L26.1303 39.2652L26.1738 39.1751ZM32.6441 42.2988L32.6877 42.2089L32.6875 42.2088L32.6441 42.2988ZM33.6453 41.9493L33.5553 41.9058L33.5552 41.906L33.6453 41.9493ZM22.1815 22.282L22.243 22.2031L22.243 22.2031L22.1815 22.282ZM17.2113 18.4082L17.2727 18.3294L17.2724 18.3291L17.2113 18.4082ZM16.1582 18.5387L16.0794 18.4773L16.0793 18.4774L16.1582 18.5387ZM16.2888 19.5918L16.2273 19.6706L16.2273 19.6706L16.2888 19.5918ZM21.259 23.4655L21.1975 23.5444L21.1977 23.5446L21.259 23.4655ZM22.312 23.3351L22.3908 23.3967L22.391 23.3965L22.312 23.3351ZM45.25 28.75H45.35H45.25ZM38.5 26.5H38.6H38.5ZM32.8742 35.8877L32.8241 35.9743L32.8241 35.9743L32.8742 35.8877ZM41.1258 35.8877L41.0758 35.8011L41.0757 35.8012L41.1258 35.8877ZM40 34.7912L40.0446 34.8807L40 34.6912V34.7912ZM33.9999 34.7912H33.8999V34.8531L33.9554 34.8807L33.9999 34.7912ZM39.9999 34.7912H39.8999V34.8912H39.9999V34.7912ZM22 35.5H22.1H22ZM20.5 35.5H20.6H20.5ZM14.8743 44.8877L14.8241 44.9743L14.8242 44.9743L14.8743 44.8877ZM23.1258 44.8877L23.0759 44.8011L23.0757 44.8012L23.1258 44.8877ZM22 43.7912L22.0446 43.8807L22.1 43.8531L22.1 43.7912L22 43.7912ZM16 43.7912H15.9V43.8531L15.9554 43.8807L16 43.7912ZM21.9999 42.262H21.8999V42.262L21.9999 42.262ZM17.5001 19H17.6001V19L17.5001 19ZM5.12427 26.1378L5.07413 26.2243L5.07418 26.2243L5.12427 26.1378ZM13.3758 26.1378L13.3259 26.0511L13.3257 26.0512L13.3758 26.1378ZM12.25 25.0412L12.2946 25.1307L12.35 25.1031L12.35 25.0412L12.25 25.0412ZM6.24997 25.0412H6.14997V25.1031L6.20538 25.1307L6.24997 25.0412ZM12.2499 23.512H12.1499V23.512L12.2499 23.512ZM35.5001 9.25003H35.6001V9.25002L35.5001 9.25003ZM28.7501 6.99994L28.8501 6.99996V6.99994H28.7501ZM23.1243 16.3878L23.0741 16.4743L23.0742 16.4744L23.1243 16.3878ZM31.3758 16.3878L31.3259 16.3012L31.3257 16.3013L31.3758 16.3878ZM30.25 15.2913L30.2946 15.3808L30.35 15.3532L30.35 15.2913L30.25 15.2913ZM24.25 15.2913H24.15V15.3532L24.2054 15.3808L24.25 15.2913ZM30.2499 13.7621H30.1499V13.7621L30.2499 13.7621ZM20.3207 8.76172L20.3967 8.69674L20.3966 8.69657L20.3207 8.76172ZM19.2632 8.67998L19.1983 8.60397L19.1982 8.604L19.2632 8.67998ZM14.0657 13.1275L14.1307 13.2035L14.1307 13.2035L14.0657 13.1275ZM13.9832 14.185L13.9072 14.25L13.9073 14.2501L13.9832 14.185ZM15.0407 14.2667L14.9757 14.1908L14.9756 14.1908L15.0407 14.2667ZM20.2382 9.81922L20.1732 9.74319L20.1732 9.74324L20.2382 9.81922ZM36.85 20.8008L36.77 20.8608L36.77 20.8608L36.85 20.8008ZM32.35 14.8008L32.2699 14.8606L32.27 14.8608L32.35 14.8008ZM31.2999 14.6507L31.2401 14.5706L31.24 14.5707L31.2999 14.6507ZM31.1499 15.7L31.2299 15.64L31.2299 15.6399L31.1499 15.7ZM35.6499 21.7L35.5699 21.76L35.57 21.7601L35.6499 21.7ZM36.6999 21.8499L36.64 21.7699L36.6399 21.7699L36.6999 21.8499ZM30.6947 31.2302L30.6147 31.2902L30.6148 31.2903L30.6947 31.2302ZM29.6447 31.0802L29.5848 31.0002L29.5847 31.0002L29.6447 31.0802ZM25.4552 34.2219L25.5152 34.302L25.5152 34.3019L25.4552 34.2219ZM25.3052 35.2712L25.2252 35.3312L25.2253 35.3313L25.3052 35.2712ZM26.3552 35.4211L26.4149 35.5013L26.4152 35.5011L26.3552 35.4211ZM30.5447 32.2794L30.4848 32.1993L30.4847 32.1994L30.5447 32.2794ZM12.2499 3.99997L12.1499 3.99996V3.99997H12.2499ZM10.7501 3.99997L10.8501 3.99998V3.99997H10.7501ZM43 9.89999C41.2903 9.89999 39.9001 11.2903 39.9001 13H40.1001C40.1001 11.4007 41.4007 10.1 43 10.1V9.89999ZM39.9001 13C39.9001 14.7096 41.2903 16.0999 43 16.0999V15.8999C41.4008 15.8999 40.1001 14.5992 40.1001 13H39.9001ZM43 16.0999C44.7097 16.0999 46.1 14.7097 46.1 13H45.9C45.9 14.5993 44.5993 15.8999 43 15.8999V16.0999ZM46.1 13C46.1 11.2903 44.7097 9.89999 43 9.89999V10.1C44.5993 10.1 45.9 11.4007 45.9 13H46.1ZM43 14.4C42.228 14.4 41.6 13.772 41.6 13H41.4C41.4 13.8825 42.1176 14.6 43 14.6V14.4ZM41.6 13C41.6 12.228 42.2279 11.5999 43 11.5999V11.3999C42.1175 11.3999 41.4 12.1175 41.4 13H41.6ZM43 11.5999C43.7721 11.5999 44.4001 12.2279 44.4001 13H44.6001C44.6001 12.1174 43.8826 11.3999 43 11.3999V11.5999ZM44.4001 12.9999C44.4 13.772 43.772 14.4 43 14.4V14.6C43.8825 14.6 44.6 13.8825 44.6001 13L44.4001 12.9999ZM3.99997 34.65C2.29029 34.65 0.9 36.0403 0.9 37.75H1.1C1.1 36.1507 2.40075 34.85 3.99997 34.85V34.65ZM0.9 37.75C0.9 39.4596 2.29029 40.8499 3.99997 40.8499V40.6499C2.40075 40.6499 1.1 39.3492 1.1 37.75H0.9ZM3.99997 40.8499C5.70974 40.8499 7.09994 39.4596 7.09994 37.75H6.89994C6.89994 39.3492 5.59928 40.6499 3.99997 40.6499V40.8499ZM7.09994 37.75C7.09994 36.0403 5.70974 34.65 3.99997 34.65V34.85C5.59928 34.85 6.89994 36.1507 6.89994 37.75H7.09994ZM3.99997 39.15C3.22797 39.15 2.59994 38.522 2.59994 37.75H2.39994C2.39994 38.6325 3.11752 39.35 3.99997 39.35V39.15ZM2.59994 37.75C2.59994 36.9779 3.22789 36.3499 3.99997 36.3499V36.1499C3.11743 36.1499 2.39994 36.8674 2.39994 37.75H2.59994ZM3.99997 36.3499C4.77197 36.3499 5.4 36.9779 5.4 37.75H5.6C5.6 36.8674 4.88242 36.1499 3.99997 36.1499V36.3499ZM5.4 37.75C5.4 38.522 4.77206 39.15 3.99997 39.15V39.35C4.88251 39.35 5.6 38.6325 5.6 37.75H5.4ZM41.5893 10.8579L35.119 7.7342L35.0321 7.91431L41.5023 11.038L41.5893 10.8579ZM35.1191 7.73424C34.6956 7.52925 34.1882 7.70797 33.9843 8.13032L34.1644 8.21727C34.3205 7.89395 34.7085 7.75767 35.032 7.91426L35.1191 7.73424ZM33.9843 8.13031C33.7802 8.55285 33.9579 9.06112 34.3804 9.2651L34.4673 9.08499C34.1442 8.92897 34.0084 8.54022 34.1644 8.21728L33.9843 8.13031ZM34.3804 9.2651L40.8506 12.3888L40.9376 12.2087L34.4673 9.08499L34.3804 9.2651ZM40.8504 12.3887C40.9694 12.4465 41.0954 12.4737 41.2196 12.4737V12.2737C41.1249 12.2737 41.0288 12.253 40.9378 12.2088L40.8504 12.3887ZM41.2196 12.4737C41.5354 12.4737 41.8391 12.2971 41.9854 11.9925L41.8051 11.9059C41.6935 12.1384 41.4617 12.2737 41.2196 12.2737V12.4737ZM41.9853 11.9927C42.1894 11.5702 42.0117 11.0619 41.5893 10.8579L41.5023 11.038C41.8254 11.194 41.9612 11.5828 41.8052 11.9057L41.9853 11.9927ZM34.75 39.9C33.0402 39.9 31.65 41.2902 31.65 42.9999H31.85C31.85 41.4007 33.1507 40.1 34.75 40.1V39.9ZM31.65 42.9999C31.65 44.7096 33.0402 46.1 34.75 46.1V45.9C33.1507 45.9 31.85 44.5992 31.85 42.9999H31.65ZM34.75 46.1C36.4598 46.1 37.85 44.7097 37.85 43H37.65C37.65 44.5992 36.3493 45.9 34.75 45.9V46.1ZM37.85 43C37.85 41.2903 36.4598 39.9 34.75 39.9V40.1C36.3493 40.1 37.65 41.4008 37.65 43H37.85ZM34.75 44.4C33.978 44.4 33.35 43.772 33.35 42.9999H33.15C33.15 43.8825 33.8675 44.6 34.75 44.6V44.4ZM33.35 42.9999C33.35 42.2278 33.978 41.6 34.75 41.6V41.4C33.8676 41.4 33.15 42.1174 33.15 42.9999H33.35ZM34.75 41.6C35.522 41.6 36.15 42.2279 36.15 43H36.35C36.35 42.1175 35.6325 41.4 34.75 41.4V41.6ZM36.15 43C36.15 43.7721 35.522 44.4 34.75 44.4V44.6C35.6324 44.6 36.35 43.8826 36.35 43H36.15ZM33.3393 40.858L26.869 37.7343L26.7821 37.9144L33.2523 41.0381L33.3393 40.858ZM26.8691 37.7343C26.4457 37.5294 25.9381 37.7072 25.7342 38.1304L25.9144 38.2173C26.0704 37.8934 26.4583 37.7577 26.782 37.9143L26.8691 37.7343ZM25.7342 38.1304C25.5302 38.5529 25.7078 39.0612 26.1303 39.2652L26.2173 39.085C25.8941 38.929 25.7584 38.5403 25.9143 38.2173L25.7342 38.1304ZM26.1303 39.2652L32.6006 42.3889L32.6875 42.2088L26.2173 39.085L26.1303 39.2652ZM32.6004 42.3888C32.7194 42.4465 32.8454 42.4738 32.9695 42.4738V42.2738C32.8748 42.2738 32.7788 42.2531 32.6877 42.2089L32.6004 42.3888ZM32.9695 42.4738C33.2854 42.4738 33.5891 42.2971 33.7355 41.9926L33.5552 41.906C33.4435 42.1384 33.2116 42.2738 32.9695 42.2738V42.4738ZM33.7354 41.9927C33.9393 41.5701 33.7617 41.062 33.3393 40.858L33.2523 41.0381C33.5754 41.1941 33.7111 41.5828 33.5553 41.9058L33.7354 41.9927ZM23.5 21.15C21.7902 21.15 20.4 22.5403 20.4 24.25H20.6C20.6 22.6507 21.9007 21.35 23.5 21.35V21.15ZM20.4 24.25C20.4 25.9597 21.7903 27.3499 23.5 27.3499V27.1499C21.9008 27.1499 20.6 25.8493 20.6 24.25H20.4ZM23.5 27.3499C25.2098 27.3499 26.6 25.9596 26.6 24.25H26.4C26.4 25.8492 25.0993 27.1499 23.5 27.1499V27.3499ZM26.6 24.25C26.6 22.5403 25.2098 21.15 23.5 21.15V21.35C25.0993 21.35 26.4 22.6507 26.4 24.25H26.6ZM23.5 25.65C22.728 25.65 22.1 25.022 22.1 24.25H21.9C21.9 25.1325 22.6175 25.85 23.5 25.85V25.65ZM22.1 24.25C22.1 23.478 22.7279 22.8499 23.5 22.8499V22.6499C22.6175 22.6499 21.9 23.3675 21.9 24.25H22.1ZM23.5 22.8499C24.272 22.8499 24.9 23.4779 24.9 24.25H25.1C25.1 23.3674 24.3825 22.6499 23.5 22.6499V22.8499ZM24.9 24.25C24.9 25.022 24.272 25.65 23.5 25.65V25.85C24.3825 25.85 25.1 25.1325 25.1 24.25H24.9ZM22.243 22.2031L17.2727 18.3294L17.1498 18.4871L22.12 22.3609L22.243 22.2031ZM17.2724 18.3291C16.9023 18.043 16.3687 18.1063 16.0794 18.4773L16.2371 18.6002C16.4579 18.3171 16.8661 18.2679 17.1501 18.4874L17.2724 18.3291ZM16.0793 18.4774C15.7913 18.8478 15.8566 19.3815 16.2273 19.6706L16.3503 19.5129C16.0669 19.2919 16.0167 18.8837 16.2372 18.6001L16.0793 18.4774ZM16.2273 19.6706L21.1975 23.5444L21.3204 23.3867L16.3502 19.5129L16.2273 19.6706ZM21.1977 23.5446C21.353 23.6651 21.5367 23.7238 21.7195 23.7238V23.5238C21.5798 23.5238 21.4395 23.4791 21.3203 23.3865L21.1977 23.5446ZM21.7195 23.7238C21.9725 23.7238 22.2226 23.6117 22.3908 23.3967L22.2332 23.2735C22.1045 23.438 21.9135 23.5238 21.7195 23.5238V23.7238ZM22.391 23.3965C22.679 23.0259 22.6137 22.4922 22.243 22.2031L22.12 22.3609C22.4034 22.5818 22.4536 22.99 22.233 23.2737L22.391 23.3965ZM37 20.4C32.396 20.4 28.65 24.146 28.65 28.75H28.85C28.85 24.2565 32.5064 20.6 37 20.6V20.4ZM28.65 28.75C28.65 33.3541 32.396 37.1001 37 37.1001V36.9001C32.5064 36.9001 28.85 33.2436 28.85 28.75H28.65ZM37 37.1001C41.604 37.1001 45.35 33.3541 45.35 28.75H45.15C45.15 33.2436 41.4936 36.9001 37 36.9001V37.1001ZM45.35 28.75C45.35 24.146 41.604 20.4 37 20.4V20.6C41.4936 20.6 45.15 24.2565 45.15 28.75H45.35ZM37 35.4C33.333 35.4 30.35 32.417 30.35 28.75H30.15C30.15 32.5274 33.2225 35.6 37 35.6V35.4ZM30.35 28.75C30.35 25.0829 33.333 22.1 37 22.1V21.9C33.2225 21.9 30.15 24.9725 30.15 28.75H30.35ZM37 22.1C40.667 22.1 43.65 25.0829 43.65 28.75H43.85C43.85 24.9725 40.7775 21.9 37 21.9V22.1ZM43.65 28.75C43.65 32.417 40.667 35.4 37 35.4V35.6C40.7775 35.6 43.85 32.5274 43.85 28.75H43.65ZM37 23.4C35.2902 23.4 33.9 24.7903 33.9 26.5H34.1C34.1 24.9007 35.4007 23.6 37 23.6V23.4ZM33.9 26.5C33.9 28.2097 35.2903 29.5999 37 29.5999V29.3999C35.4008 29.3999 34.1 28.0993 34.1 26.5H33.9ZM37 29.5999C38.7098 29.5999 40.1 28.2096 40.1 26.5H39.9C39.9 28.0992 38.5993 29.3999 37 29.3999V29.5999ZM40.1 26.5C40.1 24.7903 38.7098 23.4 37 23.4V23.6C38.5993 23.6 39.9 24.9007 39.9 26.5H40.1ZM37 27.9C36.228 27.9 35.6 27.272 35.6 26.5H35.4C35.4 27.3825 36.1176 28.1 37 28.1V27.9ZM35.6 26.5C35.6 25.728 36.2279 25.0999 37 25.0999V24.8999C36.1175 24.8999 35.4 25.6175 35.4 26.5H35.6ZM37 25.0999C37.772 25.0999 38.4 25.7279 38.4 26.5H38.6C38.6 25.6174 37.8825 24.8999 37 24.8999V25.0999ZM38.4 26.5C38.4 27.272 37.772 27.9 37 27.9V28.1C37.8825 28.1 38.6 27.3825 38.6 26.5H38.4ZM39.1757 30.9H34.8243V31.1H39.1757V30.9ZM34.8243 30.9C33.4899 30.9 32.4 31.957 32.4 33.2612H32.6C32.6 32.0725 33.5952 31.1 34.8243 31.1V30.9ZM32.4 33.2612V35.2382H32.6V33.2612H32.4ZM32.4 35.2382C32.4 35.5416 32.5614 35.8221 32.8241 35.9743L32.9244 35.8012C32.7235 35.6848 32.6 35.4703 32.6 35.2382H32.4ZM32.8241 35.9743C34.0963 36.7105 35.54 37.1001 37 37.1001V36.9001C35.5755 36.9001 34.1662 36.5199 32.9243 35.8012L32.8241 35.9743ZM37 37.1001C38.46 37.1001 39.9037 36.7105 41.1759 35.9743L41.0757 35.8012C39.8338 36.5199 38.4245 36.9001 37 36.9001V37.1001ZM41.1757 35.9744C41.4386 35.8229 41.6 35.5415 41.6 35.239H41.4C41.4 35.4704 41.2764 35.6855 41.0758 35.8011L41.1757 35.9744ZM41.6 35.239V33.262H41.4V35.239H41.6ZM41.6 33.262C41.6 31.957 40.5102 30.9 39.1757 30.9V31.1C40.4049 31.1 41.4 32.0725 41.4 33.262H41.6ZM39.9554 34.7017C38.1168 35.6177 35.8832 35.6177 34.0445 34.7017L33.9554 34.8807C35.8502 35.8247 38.1498 35.8247 40.0446 34.8807L39.9554 34.7017ZM34.0999 34.7912V33.262H33.8999V34.7912H34.0999ZM34.0999 33.262C34.0999 32.9044 34.4174 32.6 34.8242 32.6V32.4C34.322 32.4 33.8999 32.7795 33.8999 33.262H34.0999ZM34.8242 32.6H39.1756V32.4H34.8242V32.6ZM39.1756 32.6C39.5824 32.6 39.8999 32.9044 39.8999 33.262H40.0999C40.0999 32.7795 39.6778 32.4 39.1756 32.4V32.6ZM39.8999 33.262V34.7912H40.0999V33.262H39.8999ZM39.9999 34.8912H40V34.6912H39.9999V34.8912ZM19 29.4C14.396 29.4 10.65 33.146 10.65 37.7501H10.85C10.85 33.2565 14.5065 29.6 19 29.6V29.4ZM10.65 37.7501C10.65 42.3541 14.396 46.1 19 46.1V45.9C14.5065 45.9 10.85 42.2436 10.85 37.7501H10.65ZM19 46.1C23.604 46.1 27.35 42.354 27.35 37.75H27.15C27.15 42.2435 23.4936 45.9 19 45.9V46.1ZM27.35 37.75C27.35 33.146 23.604 29.4 19 29.4V29.6C23.4936 29.6 27.15 33.2564 27.15 37.75H27.35ZM19 44.4C15.333 44.4 12.35 41.417 12.35 37.75H12.15C12.15 41.5275 15.2225 44.6 19 44.6V44.4ZM12.35 37.75C12.35 34.0829 15.333 31.1 19 31.1V30.9C15.2225 30.9 12.15 33.9725 12.15 37.75H12.35ZM19 31.1C22.667 31.1 25.65 34.0829 25.65 37.75H25.85C25.85 33.9725 22.7775 30.9 19 30.9V31.1ZM25.65 37.75C25.65 41.417 22.667 44.4 19 44.4V44.6C22.7775 44.6 25.85 41.5275 25.85 37.75H25.65ZM19 32.4C17.2902 32.4 15.9 33.7903 15.9 35.5H16.1C16.1 33.9007 17.4007 32.6 19 32.6V32.4ZM15.9 35.5C15.9 37.2097 17.2903 38.5999 19 38.5999V38.3999C17.4008 38.3999 16.1 37.0993 16.1 35.5H15.9ZM19 38.5999C20.7097 38.5999 22.1 37.2096 22.1 35.5H21.9C21.9 37.0992 20.5992 38.3999 19 38.3999V38.5999ZM22.1 35.5C22.1 33.7903 20.7098 32.4 19 32.4V32.6C20.5993 32.6 21.9 33.9007 21.9 35.5H22.1ZM19 36.9C18.228 36.9 17.6 36.272 17.6 35.5H17.4C17.4 36.3825 18.1176 37.1 19 37.1V36.9ZM17.6 35.5C17.6 34.728 18.2279 34.0999 19 34.0999V33.8999C18.1175 33.8999 17.4 34.6175 17.4 35.5H17.6ZM19 34.0999C19.772 34.0999 20.4 34.7279 20.4 35.5H20.6C20.6 34.6174 19.8825 33.8999 19 33.8999V34.0999ZM20.4 35.5C20.4 36.272 19.772 36.9 19 36.9V37.1C19.8825 37.1 20.6 36.3825 20.6 35.5H20.4ZM21.1757 39.9H16.8243V40.1H21.1757V39.9ZM16.8243 39.9C15.4899 39.9 14.4 40.957 14.4 42.2612H14.6C14.6 41.0725 15.5952 40.1 16.8243 40.1V39.9ZM14.4 42.2612V44.2382H14.6V42.2612H14.4ZM14.4 44.2382C14.4 44.5416 14.5615 44.8221 14.8241 44.9743L14.9244 44.8012C14.7235 44.6848 14.6 44.4703 14.6 44.2382H14.4ZM14.8242 44.9743C16.0963 45.7105 17.54 46.1 19 46.1V45.9C17.5755 45.9 16.1663 45.5199 14.9243 44.8012L14.8242 44.9743ZM19 46.1C20.46 46.1 21.9038 45.7105 23.1759 44.9743L23.0757 44.8012C21.8338 45.5199 20.4246 45.9 19 45.9V46.1ZM23.1757 44.9744C23.4386 44.8229 23.6 44.5416 23.6 44.239H23.4C23.4 44.4705 23.2764 44.6855 23.0759 44.8011L23.1757 44.9744ZM23.6 44.239V42.262H23.4V44.239H23.6ZM23.6 42.262C23.6 40.957 22.5102 39.9 21.1757 39.9V40.1C22.4049 40.1 23.4 41.0725 23.4 42.262H23.6ZM21.9554 43.7017C20.1167 44.6177 17.8833 44.6177 16.0445 43.7017L15.9554 43.8807C17.8502 44.8247 20.1497 44.8247 22.0446 43.8807L21.9554 43.7017ZM16.1 43.7912V42.262H15.9V43.7912H16.1ZM16.1 42.262C16.1 41.9044 16.4174 41.6 16.8242 41.6V41.4C16.322 41.4 15.9 41.7795 15.9 42.262H16.1ZM16.8242 41.6H21.1757V41.4H16.8242V41.6ZM21.1757 41.6C21.5824 41.6 21.8999 41.9044 21.8999 42.262H22.0999C22.0999 41.7795 21.6778 41.4 21.1757 41.4V41.6ZM21.8999 42.262L21.9 43.7912L22.1 43.7912L22.0999 42.262L21.8999 42.262ZM9.25003 10.65C4.64602 10.65 0.9 14.396 0.9 19H1.1C1.1 14.5065 4.75648 10.85 9.25003 10.85V10.65ZM0.9 19C0.9 23.604 4.64602 27.35 9.25003 27.35V27.15C4.75648 27.15 1.1 23.4936 1.1 19H0.9ZM9.25003 27.35C13.854 27.35 17.6001 23.604 17.6001 19H17.4001C17.4001 23.4936 13.7436 27.15 9.25003 27.15V27.35ZM17.6001 19C17.6 14.396 13.854 10.65 9.25003 10.65V10.85C13.7435 10.85 17.4 14.5065 17.4001 19L17.6001 19ZM9.25003 25.65C5.583 25.65 2.60003 22.667 2.60003 19H2.40003C2.40003 22.7775 5.47255 25.85 9.25003 25.85V25.65ZM2.60003 19C2.60003 15.333 5.583 12.35 9.25003 12.35V12.15C5.47255 12.15 2.40003 15.2225 2.40003 19H2.60003ZM9.25003 12.35C12.9171 12.35 15.9 15.333 15.9 19H16.1C16.1 15.2225 13.0275 12.15 9.25003 12.15V12.35ZM15.9 19C15.9 22.667 12.9171 25.65 9.25003 25.65V25.85C13.0275 25.85 16.1 22.7775 16.1 19H15.9ZM9.25002 13.65C7.54025 13.65 6.15005 15.0403 6.15005 16.75H6.35005C6.35005 15.1508 7.65071 13.85 9.25002 13.85V13.65ZM6.15005 16.75C6.15005 18.4597 7.54034 19.85 9.25002 19.85V19.65C7.6508 19.65 6.35005 18.3492 6.35005 16.75H6.15005ZM9.25002 19.85C10.9598 19.85 12.35 18.4597 12.35 16.75H12.15C12.15 18.3492 10.8493 19.65 9.25002 19.65V19.85ZM12.35 16.75C12.35 15.0403 10.9597 13.65 9.25002 13.65V13.85C10.8492 13.85 12.15 15.1508 12.15 16.75H12.35ZM9.25002 18.15C8.47802 18.15 7.84999 17.5221 7.84999 16.75H7.64999C7.64999 17.6325 8.36757 18.35 9.25002 18.35V18.15ZM7.84999 16.75C7.84999 15.9779 8.47793 15.35 9.25002 15.35V15.15C8.36748 15.15 7.64999 15.8674 7.64999 16.75H7.84999ZM9.25002 15.35C10.022 15.35 10.6501 15.9779 10.6501 16.75H10.8501C10.8501 15.8674 10.1325 15.15 9.25002 15.15V15.35ZM10.6501 16.75C10.6501 17.5221 10.022 18.15 9.25002 18.15V18.35C10.1325 18.35 10.8501 17.6325 10.8501 16.75H10.6501ZM11.4258 21.15H7.0743V21.35H11.4258V21.15ZM7.0743 21.15C5.73995 21.15 4.65003 22.207 4.65003 23.5112H4.85003C4.85003 22.3226 5.84522 21.35 7.0743 21.35V21.15ZM4.65003 23.5112V25.4882H4.85003V23.5112H4.65003ZM4.65003 25.4882C4.65003 25.7916 4.81147 26.0721 5.07413 26.2243L5.1744 26.0512C4.97353 25.9348 4.85003 25.7203 4.85003 25.4882H4.65003ZM5.07418 26.2243C6.34629 26.9605 7.79001 27.35 9.25003 27.35V27.15C7.82548 27.15 6.41627 26.7699 5.17436 26.0512L5.07418 26.2243ZM9.25003 27.35C10.7101 27.35 12.1538 26.9605 13.4259 26.2243L13.3257 26.0512C12.0838 26.7699 10.6746 27.15 9.25003 27.15V27.35ZM13.4257 26.2244C13.6887 26.0729 13.85 25.7915 13.85 25.489H13.65C13.65 25.7204 13.5265 25.9356 13.3259 26.0511L13.4257 26.2244ZM13.85 25.489V23.512H13.65V25.489H13.85ZM13.85 23.512C13.85 22.207 12.7601 21.15 11.4258 21.15V21.35C12.6548 21.35 13.65 22.3225 13.65 23.512H13.85ZM12.2054 24.9517C10.3668 25.8677 8.13328 25.8677 6.29456 24.9517L6.20538 25.1307C8.10026 26.0747 10.3998 26.0747 12.2946 25.1307L12.2054 24.9517ZM6.34997 25.0412V23.512H6.14997V25.0412H6.34997ZM6.34997 23.512C6.34997 23.1545 6.66743 22.85 7.07421 22.85V22.65C6.57202 22.65 6.14997 23.0295 6.14997 23.512H6.34997ZM7.07421 22.85H11.4257V22.65H7.07421V22.85ZM11.4257 22.85C11.8325 22.85 12.1499 23.1545 12.1499 23.512H12.3499C12.3499 23.0295 11.9279 22.65 11.4257 22.65V22.85ZM12.1499 23.512L12.15 25.0412L12.35 25.0412L12.3499 23.512L12.1499 23.512ZM27.25 0.9C22.646 0.9 18.9 4.64602 18.9 9.25003H19.1C19.1 4.75648 22.7565 1.1 27.25 1.1V0.9ZM18.9 9.25003C18.9 13.854 22.646 17.6001 27.25 17.6001V17.4001C22.7565 17.4001 19.1 13.7436 19.1 9.25003H18.9ZM27.25 17.6001C31.854 17.6001 35.6001 13.854 35.6001 9.25003H35.4001C35.4001 13.7436 31.7436 17.4001 27.25 17.4001V17.6001ZM35.6001 9.25002C35.6 4.64602 31.854 0.9 27.25 0.9V1.1C31.7435 1.1 35.4 4.75648 35.4001 9.25003L35.6001 9.25002ZM27.25 15.9C23.583 15.9 20.6 12.9171 20.6 9.25003H20.4C20.4 13.0275 23.4726 16.1 27.25 16.1V15.9ZM20.6 9.25003C20.6 5.583 23.583 2.60003 27.25 2.60003V2.40003C23.4726 2.40003 20.4 5.47254 20.4 9.25003H20.6ZM27.25 2.60003C30.9171 2.60003 33.9 5.583 33.9 9.25003H34.1C34.1 5.47254 31.0275 2.40003 27.25 2.40003V2.60003ZM33.9 9.25003C33.9 12.9171 30.9171 15.9 27.25 15.9V16.1C31.0275 16.1 34.1 13.0275 34.1 9.25003H33.9ZM27.25 3.89997C25.5403 3.89997 24.1501 5.29027 24.1501 6.99994H24.3501C24.3501 5.40072 25.6507 4.09997 27.25 4.09997V3.89997ZM24.1501 6.99994C24.1501 8.70963 25.5403 10.0999 27.25 10.0999V9.89992C25.6508 9.89992 24.3501 8.59917 24.3501 6.99994H24.1501ZM27.25 10.0999C28.9597 10.0999 30.35 8.70972 30.35 7.00003H30.15C30.15 8.59925 28.8493 9.89992 27.25 9.89992V10.0999ZM30.35 7.00003C30.35 5.29036 28.9597 3.89997 27.25 3.89997V4.09997C28.8493 4.09997 30.15 5.4008 30.15 7.00003H30.35ZM27.25 8.39997C26.478 8.39997 25.85 7.77203 25.85 6.99994H25.65C25.65 7.88249 26.3676 8.59997 27.25 8.59997V8.39997ZM25.85 6.99994C25.85 6.22794 26.4779 5.59992 27.25 5.59992V5.39992C26.3675 5.39992 25.65 6.11749 25.65 6.99994H25.85ZM27.25 5.59992C28.0221 5.59992 28.6501 6.22786 28.6501 6.99994H28.8501C28.8501 6.1174 28.1326 5.39992 27.25 5.39992V5.59992ZM28.6501 6.99993C28.65 7.77203 28.022 8.39997 27.25 8.39997V8.59997C28.1325 8.59997 28.85 7.88248 28.8501 6.99996L28.6501 6.99993ZM29.4258 11.4H25.0743V11.6H29.4258V11.4ZM25.0743 11.4C23.74 11.4 22.65 12.457 22.65 13.7613H22.85C22.85 12.5726 23.8452 11.6 25.0743 11.6V11.4ZM22.65 13.7613V15.7383H22.85V13.7613H22.65ZM22.65 15.7383C22.65 16.0416 22.8115 16.3221 23.0741 16.4743L23.1744 16.3013C22.9735 16.1849 22.85 15.9704 22.85 15.7383H22.65ZM23.0742 16.4744C24.3463 17.2106 25.79 17.6001 27.25 17.6001V17.4001C25.8255 17.4001 24.4163 17.02 23.1744 16.3013L23.0742 16.4744ZM27.25 17.6001C28.7101 17.6001 30.1538 17.2106 31.4259 16.4744L31.3257 16.3013C30.0838 17.02 28.6746 17.4001 27.25 17.4001V17.6001ZM31.4257 16.4745C31.6887 16.323 31.85 16.0415 31.85 15.7391H31.65C31.65 15.9705 31.5265 16.1856 31.3259 16.3012L31.4257 16.4745ZM31.85 15.7391V13.7621H31.65V15.7391H31.85ZM31.85 13.7621C31.85 12.457 30.7601 11.4 29.4258 11.4V11.6C30.6548 11.6 31.65 12.5725 31.65 13.7621H31.85ZM30.2054 15.2018C28.3668 16.1178 26.1333 16.1178 24.2946 15.2018L24.2054 15.3808C26.1003 16.3247 28.3998 16.3247 30.2946 15.3808L30.2054 15.2018ZM24.35 15.2913V13.7621H24.15V15.2913H24.35ZM24.35 13.7621C24.35 13.4045 24.6674 13.1001 25.0742 13.1001V12.9001C24.572 12.9001 24.15 13.2796 24.15 13.7621H24.35ZM25.0742 13.1001H29.4257V12.9001H25.0742V13.1001ZM29.4257 13.1001C29.8325 13.1001 30.1499 13.4045 30.1499 13.7621H30.3499C30.3499 13.2796 29.9279 12.9001 29.4257 12.9001V13.1001ZM30.1499 13.7621L30.15 15.2913L30.35 15.2913L30.3499 13.7621L30.1499 13.7621ZM20.3966 8.69657C20.0916 8.34134 19.5553 8.29874 19.1983 8.60397L19.3282 8.75599C19.6012 8.52262 20.0115 8.55508 20.2449 8.82686L20.3966 8.69657ZM19.1982 8.604L14.0007 13.0515L14.1307 13.2035L19.3282 8.75596L19.1982 8.604ZM14.0008 13.0515C13.6437 13.3566 13.6021 13.8931 13.9072 14.25L14.0592 14.12C13.8258 13.847 13.8578 13.4368 14.1307 13.2035L14.0008 13.0515ZM13.9073 14.2501C14.0755 14.4463 14.3136 14.5475 14.5532 14.5475V14.3475C14.3698 14.3475 14.188 14.2702 14.0591 14.1199L13.9073 14.2501ZM14.5532 14.5475C14.7487 14.5475 14.9453 14.4803 15.1058 14.3427L14.9756 14.1908C14.8526 14.2963 14.7027 14.3475 14.5532 14.3475V14.5475ZM15.1057 14.3427L20.3032 9.8952L20.1732 9.74324L14.9757 14.1908L15.1057 14.3427ZM20.3032 9.89525C20.6603 9.5901 20.7019 9.05366 20.3967 8.69674L20.2447 8.8267C20.4782 9.09978 20.4463 9.50992 20.1732 9.74319L20.3032 9.89525ZM36.93 20.7408L32.43 14.7408L32.27 14.8608L36.77 20.8608L36.93 20.7408ZM32.4301 14.7409C32.1484 14.364 31.6154 14.2904 31.2401 14.5706L31.3598 14.7309C31.6475 14.516 32.055 14.5731 32.2699 14.8606L32.4301 14.7409ZM31.24 14.5707C30.8642 14.8522 30.7886 15.3851 31.0699 15.76L31.2299 15.6399C31.0148 15.3534 31.0727 14.9459 31.3599 14.7308L31.24 14.5707ZM31.0699 15.76L35.5699 21.76L35.7299 21.64L31.2299 15.64L31.0699 15.76ZM35.57 21.7601C35.7374 21.9828 35.9925 22.1 36.2507 22.1V21.9C36.0528 21.9 35.8579 21.8103 35.7299 21.6399L35.57 21.7601ZM36.2507 22.1C36.4275 22.1 36.607 22.0446 36.7599 21.9299L36.6399 21.7699C36.5229 21.8577 36.3858 21.9 36.2507 21.9V22.1ZM36.7599 21.93C37.1357 21.6486 37.2114 21.1156 36.93 20.7407L36.77 20.8608C36.9851 21.1474 36.9272 21.5549 36.64 21.7699L36.7599 21.93ZM30.7748 31.1703C30.4933 30.7944 29.9603 30.719 29.5848 31.0002L29.7046 31.1603C29.9921 30.945 30.3996 31.003 30.6147 31.2902L30.7748 31.1703ZM29.5847 31.0002L25.3952 34.1419L25.5152 34.3019L29.7047 31.1602L29.5847 31.0002ZM25.3953 34.1419C25.0195 34.4234 24.9439 34.9563 25.2252 35.3312L25.3852 35.2112C25.1701 34.9246 25.2279 34.5171 25.5152 34.302L25.3953 34.1419ZM25.2253 35.3313C25.3927 35.5539 25.6478 35.6712 25.9059 35.6712V35.4712C25.7081 35.4712 25.5132 35.3815 25.3851 35.2111L25.2253 35.3313ZM25.9059 35.6712C26.0838 35.6712 26.2623 35.6149 26.4149 35.5013L26.2955 35.3409C26.1779 35.4284 26.0414 35.4712 25.9059 35.4712V35.6712ZM26.4152 35.5011L30.6047 32.3594L30.4847 32.1994L26.2952 35.3411L26.4152 35.5011ZM30.6046 32.3594C30.9805 32.0782 31.0561 31.5451 30.7747 31.1702L30.6148 31.2903C30.8299 31.5769 30.772 31.9844 30.4848 32.1993L30.6046 32.3594ZM11.5 36.9H6.24997V37.1H11.5V36.9ZM6.24997 36.9C5.78084 36.9 5.4 37.2799 5.4 37.75H5.6C5.6 37.3905 5.89116 37.1 6.24997 37.1V36.9ZM5.4 37.75C5.4 38.22 5.78084 38.5999 6.24997 38.5999V38.3999C5.89116 38.3999 5.6 38.1094 5.6 37.75H5.4ZM6.24997 38.5999H11.4999V38.3999H6.24997V38.5999ZM11.4999 38.5999C11.9691 38.5999 12.3499 38.22 12.3499 37.75H12.1499C12.1499 38.1094 11.8587 38.3999 11.4999 38.3999V38.5999ZM12.3499 37.75C12.3499 37.2799 11.9692 36.9 11.5 36.9V37.1C11.8588 37.1 12.1499 37.3905 12.1499 37.75H12.3499ZM9.25002 0.9C7.54026 0.9 6.14996 2.29029 6.14996 3.99997H6.34996C6.34996 2.40075 7.65071 1.1 9.25002 1.1V0.9ZM6.14996 3.99997C6.14996 5.70974 7.54026 7.09994 9.24994 7.09994V6.89994C7.65071 6.89994 6.34996 5.59928 6.34996 3.99997H6.14996ZM9.24994 7.09994C10.9597 7.09994 12.3499 5.70965 12.3499 3.99997H12.1499C12.1499 5.5992 10.8492 6.89994 9.24994 6.89994V7.09994ZM12.3499 3.99998C12.35 2.29029 10.9597 0.9 9.25002 0.9V1.1C10.8492 1.1 12.15 2.40075 12.1499 3.99996L12.3499 3.99998ZM9.25002 5.4C8.47802 5.4 7.84999 4.77205 7.84999 3.99997H7.64999C7.64999 4.88252 8.36757 5.6 9.25002 5.6V5.4ZM7.84999 3.99997C7.84999 3.22797 8.47794 2.59994 9.25002 2.59994V2.39994C8.36748 2.39994 7.64999 3.11752 7.64999 3.99997H7.84999ZM9.25002 2.59994C10.022 2.59994 10.6501 3.22789 10.6501 3.99997H10.8501C10.8501 3.11742 10.1325 2.39994 9.25002 2.39994V2.59994ZM10.6501 3.99996C10.65 4.77206 10.022 5.4 9.25002 5.4V5.6C10.1325 5.6 10.85 4.88251 10.8501 3.99998L10.6501 3.99996ZM9.25002 5.4C8.7809 5.4 8.40006 5.77991 8.40006 6.24997H8.60006C8.60006 5.89051 8.89122 5.6 9.25002 5.6V5.4ZM8.40006 6.24997V11.4999H8.60006V6.24997H8.40006ZM8.40006 11.4999C8.40006 11.97 8.78091 12.3499 9.25003 12.3499V12.1499C8.89122 12.1499 8.60006 11.8594 8.60006 11.4999H8.40006ZM9.25003 12.3499C9.71915 12.3499 10.1 11.97 10.1 11.4999H9.9C9.9 11.8594 9.60884 12.1499 9.25003 12.1499V12.3499ZM10.1 11.4999V6.24997H9.9V11.4999H10.1ZM10.1 6.24997C10.1 5.77991 9.71915 5.4 9.25002 5.4V5.6C9.60883 5.6 9.9 5.89051 9.9 6.24997H10.1Z" fill="white" mask="url(#path-1-outside-1)"/>
</svg>
