<svg width="51" height="50" viewBox="0 0 51 50" fill="none" xmlns="http://www.w3.org/2000/svg">
<path d="M50.7922 21.216L42.2562 10.1982C41.9402 9.79069 41.364 9.69017 40.927 9.96621L35.4158 13.4489H28.228C28.135 13.4489 28.0424 13.4686 27.9529 13.4945L22.3799 15.0885L16.5971 13.5169L10.9781 9.96621C10.5485 9.69481 9.98278 9.78682 9.66333 10.1804L0.221844 21.8006C-0.11745 22.2181 -0.06142 22.8278 0.347912 23.1777L5.29647 27.4092L9.73609 33.3538C8.43767 34.7282 8.46296 36.896 9.81391 38.2387C10.4127 38.8333 11.1742 39.1693 11.9575 39.2474C11.9302 39.4237 11.9162 39.6027 11.9162 39.7844C11.9162 40.7224 12.2839 41.6042 12.9512 42.2673C13.6189 42.9307 14.5064 43.2961 15.4504 43.2961C15.4632 43.2961 15.4757 43.2953 15.4881 43.2949C15.4878 43.3189 15.4866 43.3425 15.4866 43.3664C15.4866 44.3044 15.8543 45.1862 16.5216 45.8497C17.1893 46.5127 18.0768 46.8781 19.0208 46.8781C19.2071 46.8781 19.3916 46.863 19.5725 46.8352C19.6492 47.6161 19.9881 48.3762 20.5888 48.9731C21.2775 49.6578 22.1826 50 23.0876 50C23.9927 50 24.8977 49.6578 25.5868 48.9731L26.1273 48.4361L26.3541 48.6178C27.0374 49.2755 27.9245 49.6041 28.8117 49.6041C29.7167 49.6041 30.6218 49.2619 31.3105 48.5773C32.0136 47.8786 32.3579 46.9566 32.3435 46.0391C33.2665 46.053 34.1948 45.7113 34.8979 45.013C35.6003 44.3148 35.9446 43.3935 35.931 42.4764C36.8925 42.4915 37.8045 42.1246 38.4851 41.4484C39.1882 40.7498 39.5325 39.8277 39.5181 38.9103C40.4418 38.9242 41.3694 38.5824 42.0725 37.8838C43.2725 36.6915 43.427 34.8485 42.5371 33.488L45.7787 26.7423L50.6522 22.5753C51.0549 22.2309 51.1164 21.6339 50.7922 21.216ZM10.6583 12.1193L14.6987 14.6721L5.9093 25.3118L2.38718 22.2997L10.6583 12.1193ZM11.2283 34.6776L12.4477 33.4659C12.4847 33.4292 12.5236 33.3944 12.5633 33.3619C12.8018 33.1686 13.0905 33.0534 13.3963 33.026C13.4049 33.0252 13.4139 33.0252 13.4224 33.0248C13.466 33.0213 13.5096 33.019 13.5535 33.0194C13.9714 33.0252 14.3598 33.1949 14.6477 33.4969C15.2127 34.0903 15.1823 35.06 14.58 35.6585L13.3975 36.8334C12.7995 37.4276 11.8263 37.4276 11.2283 36.8334C10.6302 36.2388 10.6302 35.2718 11.2283 34.6776ZM14.3656 40.8619C14.0757 40.5743 13.9162 40.1915 13.9162 39.7844C13.9162 39.3773 14.0757 38.9946 14.3656 38.7065L16.7301 36.3571C17.1831 35.907 17.8951 35.7837 18.4741 36.0578C19.071 36.3404 19.4068 36.9842 19.3192 37.6317C19.2725 37.9774 19.1107 38.3029 18.8624 38.55L16.5352 40.8619C16.2453 41.15 15.8601 41.3085 15.4504 41.3085C15.0407 41.3085 14.6555 41.15 14.3656 40.8619ZM17.936 44.4439C17.6461 44.1563 17.4866 43.7735 17.4866 43.3664C17.4866 42.9593 17.6461 42.5766 17.936 42.2885L20.3001 39.9391C20.7846 39.4581 21.5616 39.3545 22.1546 39.6974C22.6962 40.0106 22.9799 40.6253 22.8869 41.2377C22.8359 41.5745 22.6748 41.8911 22.4324 42.132L20.1056 44.4439C19.8157 44.732 19.4305 44.8905 19.0208 44.8905C18.611 44.8905 18.2258 44.732 17.936 44.4439ZM22.0028 47.5678C21.4048 46.9736 21.4048 46.0066 22.0028 45.4124L23.2223 44.2007C23.2592 44.164 23.2977 44.1296 23.3374 44.0971C23.3386 44.0964 23.3394 44.0956 23.3402 44.0948C23.5386 43.9348 23.7717 43.8277 24.0203 43.7809C24.0261 43.7801 24.032 43.7793 24.0378 43.7786C24.0806 43.7708 24.1242 43.7646 24.1678 43.7608C24.1853 43.7592 24.2028 43.7592 24.2207 43.7581C24.2565 43.7561 24.2919 43.7538 24.3281 43.7542C24.7456 43.76 25.1343 43.9293 25.4222 44.2317C25.4576 44.2688 25.4907 44.3075 25.5211 44.3473C25.981 44.9446 25.9191 45.8319 25.3483 46.3994L24.172 47.5682C23.574 48.1624 22.6009 48.162 22.0028 47.5678ZM40.6582 36.4785C40.0601 37.0731 39.087 37.0727 38.4889 36.4785C38.4672 36.4568 38.4442 36.4367 38.4208 36.4178L31.9906 29.9613C31.6019 29.5712 30.9688 29.5681 30.5762 29.9543C30.1836 30.3401 30.1805 30.9692 30.5688 31.3593L37.0687 37.885C37.0695 37.8857 37.0703 37.8865 37.0711 37.8873C37.6691 38.4815 37.6691 39.4488 37.0711 40.0431C36.7812 40.3311 36.396 40.4896 35.9863 40.4896C35.5761 40.4896 35.1909 40.3311 34.9015 40.0431L30.5533 35.6778C30.1649 35.2877 29.5319 35.2846 29.1393 35.6704C28.7467 36.0567 28.7436 36.6857 29.1319 37.0758L33.4135 41.3742C33.4353 41.4013 33.4587 41.4272 33.4836 41.4519C34.0816 42.0461 34.0816 43.0134 33.4836 43.6077C32.8851 44.2019 31.9116 44.2015 31.3136 43.6073L28.9405 41.2246C28.5517 40.8345 27.9187 40.831 27.5261 41.2172C27.1335 41.6031 27.1304 42.2321 27.5187 42.6222L29.8257 44.938C29.8474 44.9651 29.8708 44.9914 29.8961 45.0161C30.4941 45.6104 30.4941 46.5777 29.8961 47.1719C29.298 47.7665 28.3249 47.7661 27.7269 47.1719C27.658 47.1035 27.5771 47.0509 27.5 46.9921C27.4346 46.9426 27.4175 46.9082 27.4502 46.8294C27.4833 46.7493 27.5327 46.677 27.5658 46.5966C27.6023 46.5069 27.6319 46.4145 27.6607 46.3217C27.814 45.8307 27.8591 45.3026 27.7903 44.793C27.658 43.8153 27.1168 42.933 26.2965 42.3748C25.8533 42.0736 25.3405 41.876 24.809 41.8018C25.0666 40.6729 24.7573 39.4488 23.9526 38.6041C23.2903 37.9089 22.3958 37.5188 21.4336 37.5057C21.3986 37.5053 21.3635 37.5053 21.3281 37.5057C21.3495 36.5933 21.0157 35.6867 20.3826 35.0221C19.72 34.3269 18.8254 33.9368 17.8636 33.9237C17.5776 33.9198 17.2889 33.95 17.0103 34.0138C16.8912 33.1907 16.4737 32.429 15.8414 31.8843C15.213 31.3438 14.4228 31.0438 13.5812 31.0322C12.6952 31.0194 11.8248 31.3442 11.1668 31.9346L7.30111 26.7589L16.5492 15.564L19.4966 16.3651L15.6473 23.1143C15.1819 23.9304 15.0644 24.8776 15.3162 25.7815C15.5679 26.6858 16.1586 27.4382 16.9799 27.9006C17.0313 27.9296 17.0831 27.957 17.1356 27.9833C17.1395 27.9853 17.1434 27.9872 17.1476 27.9891C17.2858 28.0576 17.4278 28.1163 17.5718 28.1658C18.2422 28.3966 18.9663 28.4218 19.6647 28.23C20.5744 27.9798 21.3316 27.3926 21.797 26.5768L24.2985 22.1906L28.765 22.5054L40.6586 34.3227C41.2562 34.9173 41.2562 35.8842 40.6582 36.4785ZM41.0726 31.9237L29.9151 20.8379C29.8941 20.8166 29.872 20.7965 29.849 20.7776C29.6883 20.6446 29.4891 20.5642 29.279 20.5495L23.8102 20.164C23.432 20.1381 23.0561 20.338 22.8693 20.6654L20.0569 25.5971C19.855 25.9513 19.5262 26.2061 19.1313 26.3147C18.7367 26.4233 18.3227 26.3723 17.9659 26.1716C17.6095 25.971 17.3531 25.6443 17.2438 25.2519C17.1344 24.8595 17.1854 24.4481 17.3877 24.094L21.1421 17.5103L22.6635 17.0753C22.6736 17.0722 22.6834 17.0684 22.6935 17.0653L28.3716 15.4361H35.2322L43.797 26.2544L41.0726 31.9237ZM45.1071 24.6948L37.1866 14.6849L41.229 12.1305L48.63 21.6826L45.1071 24.6948Z" fill="white"/>
<path d="M30.8972 11.583C31.1533 11.583 31.4093 11.486 31.6046 11.2919L38.4356 4.50447C38.8263 4.11631 38.8263 3.48728 38.4356 3.09912C38.045 2.71096 37.4119 2.71096 37.0213 3.09912L30.1902 9.88656C29.7996 10.2747 29.7996 10.9038 30.1902 11.2919C30.3856 11.486 30.6416 11.583 30.8972 11.583Z" fill="white"/>
<path d="M19.3955 11.2919C19.5908 11.486 19.8468 11.583 20.1029 11.583C20.3585 11.583 20.6145 11.486 20.8098 11.2919C21.2005 10.9038 21.2005 10.2747 20.8098 9.88656L13.9788 3.09912C13.5882 2.71096 12.9551 2.71096 12.5645 3.09912C12.1738 3.48728 12.1738 4.11631 12.5645 4.50447L19.3955 11.2919Z" fill="white"/>
<path d="M25.5 11.583C26.0522 11.583 26.5 11.138 26.5 10.5894V4.97227C26.5 4.42366 26.0522 3.97866 25.5 3.97866C24.9479 3.97866 24.5 4.42366 24.5 4.97227V10.5894C24.5 11.138 24.9479 11.583 25.5 11.583Z" fill="white"/>
<path d="M24.5771 1.37093C24.7358 1.7533 25.1316 2.00421 25.5491 1.98256C25.9615 1.9613 26.3238 1.68448 26.4514 1.29438C26.5794 0.901195 26.4401 0.453106 26.1086 0.202579C25.7705 -0.0533618 25.2989 -0.0676666 24.9452 0.16469C24.5506 0.423723 24.3977 0.93947 24.5771 1.37093Z" fill="white"/>
</svg>
