<svg width="14" height="22" viewBox="0 0 14 22" fill="none" xmlns="http://www.w3.org/2000/svg">
<path d="M6 17.5H5.5V18.5H6V17.5ZM8 18.5H8.5V17.5H8V18.5ZM12.5 2V20H13.5V2H12.5ZM12.5 20C12.5 20.2761 12.2761 20.5 12 20.5V21.5C12.8284 21.5 13.5 20.8284 13.5 20H12.5ZM12 20.5H2V21.5H12V20.5ZM2 20.5C1.72386 20.5 1.5 20.2761 1.5 20H0.5C0.5 20.8284 1.17157 21.5 2 21.5V20.5ZM1.5 20V2H0.5V20H1.5ZM1.5 2C1.5 1.72386 1.72386 1.5 2 1.5V0.5C1.17157 0.5 0.5 1.17157 0.5 2H1.5ZM2 1.5H12V0.5H2V1.5ZM12 1.5C12.2761 1.5 12.5 1.72386 12.5 2H13.5C13.5 1.17157 12.8284 0.5 12 0.5V1.5ZM6 18.5H8V17.5H6V18.5Z" fill="#CECECE"/>
</svg>
