<svg width="31" height="36" viewBox="0 0 31 36" fill="none" xmlns="http://www.w3.org/2000/svg">
<path d="M4.67546 0.44732C3.77122 -0.0970076 2.69353 -0.145682 1.75364 0.307467L17.5124 16.0998L22.665 10.9232L4.67546 0.44732ZM0.305756 1.76906C0.106946 2.18999 0 2.65822 0 3.14016V32.0279C0 32.5119 0.107632 32.9733 0.308498 33.3853L16.0611 17.558L0.305756 1.76906ZM17.5145 19.0141L1.78113 34.8222C2.19863 35.0155 2.64287 35.0999 3.08642 35.0999C3.63417 35.0999 4.18056 34.9689 4.67553 34.6714L22.6685 24.1797L17.5145 19.0141ZM29.5165 14.9131C29.5103 14.909 29.5034 14.9049 29.4973 14.9015L24.5023 11.9927L18.9652 17.5559L24.5058 23.1082C24.5058 23.1082 29.5103 20.1905 29.5165 20.1871C30.4454 19.6229 31 18.637 31 17.5498C31 16.4625 30.4454 15.4767 29.5165 14.9131Z" fill="white"/>
</svg>
