<svg width="19" height="17" viewBox="0 0 19 17" fill="none" xmlns="http://www.w3.org/2000/svg">
<path d="M12.9 16V2.66667C12.9 2.22464 12.7209 1.80072 12.4021 1.48816C12.0833 1.17559 11.6509 1 11.2 1H7.8C7.34913 1 6.91673 1.17559 6.59792 1.48816C6.27911 1.80072 6.1 2.22464 6.1 2.66667V16M2.7 4.33333H16.3C17.2389 4.33333 18 5.07953 18 6V14.3333C18 15.2538 17.2389 16 16.3 16H2.7C1.76112 16 1 15.2538 1 14.3333V6C1 5.07953 1.76112 4.33333 2.7 4.33333Z" stroke="white" stroke-width="2" stroke-linecap="round" stroke-linejoin="round"/>
</svg>
