<svg width="9" height="9" viewBox="0 0 9 9" fill="none" xmlns="http://www.w3.org/2000/svg">
<path d="M6.91326 0C6.11539 0 5.63666 0.147857 5.63666 1.24071C5.63666 1.69071 5.80851 2.14071 6.22586 2.19857V2.22429C5.63666 2.32714 5.53846 2.73214 5.53846 3.31071C5.53846 4.14643 5.91285 4.5 6.71072 4.5H7.82774C8.62561 4.5 9 4.14643 9 3.31071C9 2.73214 8.9018 2.32714 8.3126 2.22429V2.19857C8.76064 2.115 8.9018 1.69071 8.9018 1.24071C8.9018 0.147857 8.41694 0 7.61907 0H6.91326ZM6.97463 1.88357C6.60638 1.88357 6.47136 1.73571 6.47136 1.28571C6.47136 0.835714 6.60638 0.675 7.03601 0.675H7.49632C7.92594 0.675 8.0671 0.835714 8.0671 1.28571C8.0671 1.73571 7.92594 1.88357 7.56383 1.88357H6.97463ZM6.91326 3.825C6.50818 3.825 6.37316 3.62571 6.37316 3.17571C6.37316 2.72571 6.56956 2.55857 6.93781 2.55857H7.60066C7.9689 2.55857 8.1653 2.72571 8.1653 3.17571C8.1653 3.62571 8.03028 3.825 7.62521 3.825H6.91326Z" fill="white"/>
<path d="M1.52308 9H3.35077V1.13143C3.35077 0.36 2.92154 0 2.09077 0H0V1.35H1.06615C1.49538 1.35 1.52308 1.58143 1.52308 1.96714V9Z" fill="white"/>
<path d="M8.15228 7.50673V7.92C8.15228 8.27816 7.94035 8.42143 7.52291 8.42143H5.76324V9H7.82475C8.64036 9 9 8.60877 9 7.99714V6.20633C9 5.55061 8.68532 5.14286 7.86328 5.14286H6.7394C5.71828 5.14286 5.53846 5.67184 5.53846 6.39367C5.53846 7.12653 5.8403 7.50673 6.70729 7.50673H8.15228ZM8.15228 6.92816H7.09262C6.54032 6.92816 6.41187 6.72429 6.41187 6.34959C6.41187 5.95837 6.54674 5.72143 7.02198 5.72143H7.56786C8.07521 5.72143 8.15228 5.89224 8.15228 6.23939V6.92816Z" fill="white"/>
</svg>
