<svg width="48" height="48" viewBox="0 0 48 48" fill="none" xmlns="http://www.w3.org/2000/svg">
<path d="M47.0935 7.29506L47.7254 6.6631C48.0915 6.29701 48.0915 5.70339 47.7254 5.33721C47.3593 4.97121 46.7657 4.97121 46.3995 5.33721L45.7676 5.96917L45.136 5.33758C44.9602 5.1618 44.7217 5.06299 44.4731 5.06299H43.4419L38.6535 0.27459C38.4776 0.0988111 38.2392 0 37.9906 0H3.37629C1.51461 0 0 1.51451 0 3.37627V20.9449C0 22.8065 1.51461 24.3211 3.37629 24.3211H11.5437L6.05142 29.8135C5.41374 30.4512 5.06256 31.299 5.06256 32.2009C5.06256 33.1027 5.41374 33.9505 6.05142 34.5883L18.4743 47.0111C19.112 47.6488 19.9599 48 20.8618 48C21.7636 48 22.6115 47.6488 23.2492 47.0111L32.5535 37.707C32.9197 37.3409 32.9197 36.7472 32.5535 36.3811C32.1874 36.0152 31.5938 36.0151 31.2277 36.3811L21.9233 45.6852C21.6398 45.9688 21.2627 46.1249 20.8618 46.1249C20.4608 46.1249 20.0837 45.9688 19.8002 45.6852L7.37723 33.2624C7.09373 32.9789 6.93754 32.6019 6.93754 32.2009C6.93754 31.7998 7.09373 31.4229 7.37723 31.1394L31.5786 6.93816H44.0849L44.4419 7.29515L42.274 9.463C41.9068 9.28694 41.4959 9.18822 41.0622 9.18822C39.5114 9.18822 38.2497 10.4499 38.2497 12.0007C38.2497 13.5515 39.5114 14.8131 41.0622 14.8131C42.613 14.8131 43.8747 13.5515 43.8747 12.0007C43.8747 11.567 43.7759 11.156 43.5998 10.7889L45.7677 8.62104L46.1247 8.97803V21.4841L37.1937 30.4151C36.8276 30.7812 36.8276 31.3748 37.1937 31.741C37.5598 32.107 38.1534 32.107 38.5196 31.741L47.7252 22.5355C47.9009 22.3596 47.9997 22.1212 47.9997 21.8726V8.58954C47.9997 8.34092 47.9009 8.10251 47.7252 7.92664L47.0935 7.29506ZM16.8354 16.8218C16.3183 16.8218 15.8976 16.4012 15.8976 15.884C15.8976 15.3668 16.3183 14.9462 16.8354 14.9462C17.3525 14.9462 17.7732 15.3668 17.7732 15.884C17.7732 16.4011 17.3525 16.8218 16.8354 16.8218ZM31.1903 5.06309C30.9417 5.06309 30.7032 5.1619 30.5274 5.33768L19.6249 16.24C19.6397 16.1233 19.6483 16.0046 19.6483 15.8839C19.6483 14.333 18.3865 13.0711 16.8355 13.0711C15.2846 13.0711 14.0227 14.333 14.0227 15.8839C14.0227 17.4349 15.2845 18.6967 16.8355 18.6967C16.9562 18.6967 17.0748 18.6882 17.1916 18.6733L13.4188 22.4461H3.37629C2.54848 22.4461 1.87499 21.7726 1.87499 20.9448V3.37627C1.87499 2.54847 2.54848 1.87497 3.37629 1.87497H37.6022L40.7903 5.06309H31.1903ZM41.0622 12.938C40.5453 12.938 40.1247 12.5174 40.1247 12.0005C40.1247 11.4836 40.5453 11.063 41.0622 11.063C41.2761 11.063 41.473 11.1358 41.631 11.257C41.6558 11.2894 41.6823 11.3211 41.7119 11.3507C41.7415 11.3803 41.7732 11.4068 41.8056 11.4316C41.9268 11.5896 41.9996 11.7865 41.9996 12.0004C41.9997 12.5174 41.5791 12.938 41.0622 12.938Z" fill="white"/>
<path d="M31.1808 27.7342C31.4295 27.7342 31.668 27.6353 31.8437 27.4596L33.965 25.3382C34.3311 24.9721 34.3311 24.3785 33.965 24.0123C33.5989 23.6463 33.0053 23.6463 32.6392 24.0123L31.1808 25.4708L26.5404 20.8305C26.1744 20.4645 25.5807 20.4645 25.2146 20.8305C24.8485 21.1966 24.8485 21.7902 25.2146 22.1564L30.5179 27.4596C30.6938 27.6353 30.9323 27.7342 31.1808 27.7342Z" fill="white"/>
<path d="M38.4728 19.5047C38.1068 19.1387 37.5131 19.1387 37.1469 19.5047L35.9537 20.6979L34.6279 19.3722L35.8211 18.179C36.1872 17.8129 36.1872 17.2193 35.8211 16.8531C35.4551 16.4871 34.8614 16.4871 34.4953 16.8531L33.302 18.0463L31.9762 16.7206L33.1694 15.5273C33.5355 15.1612 33.5356 14.5676 33.1694 14.2014C32.8034 13.8355 32.2097 13.8354 31.8436 14.2014L29.9875 16.0576C29.8117 16.2333 29.7129 16.4718 29.7129 16.7205C29.7129 16.9691 29.8117 17.2075 29.9875 17.3834L35.2908 22.6865C35.4738 22.8695 35.7138 22.9611 35.9537 22.9611C36.1936 22.9611 36.4336 22.8695 36.6166 22.6865L38.4728 20.8304C38.8389 20.4644 38.8389 19.8708 38.4728 19.5047Z" fill="white"/>
<path d="M28.1037 30.2836C28.5649 30.5187 29.1295 30.3351 29.3646 29.8738C29.5997 29.4124 29.4162 28.848 28.9548 28.613L21.928 25.0333C21.5661 24.8489 21.1267 24.9185 20.8395 25.2057C20.5524 25.4928 20.4827 25.9323 20.6671 26.2941L24.2469 33.3208C24.4124 33.646 24.7415 33.8331 25.0829 33.833C25.2261 33.833 25.3715 33.8001 25.5077 33.7306C25.969 33.4956 26.1525 32.9311 25.9176 32.4698L25.6301 31.9054L27.5395 29.996L28.1037 30.2836ZM24.7351 30.1488L23.6472 28.0133L25.7828 29.1013L24.7351 30.1488Z" fill="white"/>
<path d="M19.116 37.5357C18.7499 37.9018 18.7498 38.4954 19.116 38.8616C19.299 39.0446 19.539 39.1362 19.7789 39.1362C20.0188 39.1362 20.2588 39.0446 20.4418 38.8616L21.7677 37.5358C22.8642 36.4392 22.8642 34.655 21.7677 33.5583C20.7253 32.516 19.0623 32.4652 17.9584 33.4042C17.9241 33.4301 17.8907 33.4577 17.8595 33.489L17.7902 33.5583C17.6131 33.7354 17.3777 33.8329 17.1272 33.8329C16.8768 33.8329 16.6414 33.7354 16.4643 33.5583C16.0988 33.1928 16.0988 32.598 16.4643 32.2324L17.7902 30.9066C18.1562 30.5405 18.1563 29.9469 17.7902 29.5807C17.4241 29.2148 16.8304 29.2147 16.4643 29.5807L15.1385 30.9065C14.0419 32.0031 14.0419 33.7874 15.1385 34.8841C15.6697 35.4153 16.3759 35.7078 17.1272 35.7078C17.8773 35.7078 18.5827 35.416 19.1139 34.886C19.1145 34.8853 19.1153 34.8847 19.116 34.8841C19.4814 34.5185 20.0762 34.5185 20.4418 34.8841C20.6189 35.0612 20.7164 35.2965 20.7164 35.5469C20.7164 35.7974 20.6189 36.0328 20.4418 36.2098L19.116 37.5357Z" fill="white"/>
<path d="M16.0628 6.05214C15.612 5.7977 15.0401 5.9567 14.7856 6.40763L8.73875 17.1188C8.48422 17.5697 8.64331 18.1415 9.09425 18.396C9.23993 18.4783 9.39809 18.5173 9.55427 18.5173C9.88146 18.5173 10.1992 18.3458 10.3715 18.0405L16.4183 7.32937C16.6728 6.87844 16.5138 6.30657 16.0628 6.05214Z" fill="white"/>
<path d="M11.7352 8.4372C11.7352 6.88621 10.4734 5.62443 8.92241 5.62443C7.37141 5.62443 6.10953 6.88621 6.10953 8.4372C6.10953 9.9882 7.37131 11.2501 8.92232 11.2501C10.4733 11.2501 11.7352 9.9882 11.7352 8.4372ZM7.98454 8.4372C7.98454 7.92008 8.40519 7.49942 8.92232 7.49942C9.43945 7.49942 9.86011 7.92008 9.86011 8.4372C9.86011 8.95442 9.43945 9.37508 8.92232 9.37508C8.40519 9.37508 7.98454 8.95442 7.98454 8.4372Z" fill="white"/>
<path d="M34.8738 33.1232C34.6263 33.1232 34.3854 33.2235 34.211 33.398C34.0366 33.5723 33.9363 33.8141 33.9363 34.0607C33.9363 34.3074 34.0366 34.5492 34.211 34.7235C34.3854 34.8979 34.6263 34.9982 34.8738 34.9982C35.1204 34.9982 35.3623 34.898 35.5366 34.7235C35.711 34.5492 35.8113 34.3074 35.8113 34.0607C35.8113 33.8141 35.711 33.5723 35.5366 33.398C35.3623 33.2236 35.1204 33.1232 34.8738 33.1232Z" fill="white"/>
</svg>
