<svg width="42" height="52" viewBox="0 0 42 52" fill="none" xmlns="http://www.w3.org/2000/svg">
<path d="M21 4.06352C20.4462 4.06352 20.001 4.51649 20.001 5.07813C20.001 5.60087 20.3882 6.03586 20.9 6.08745C21.4925 6.14717 21.999 5.67846 21.999 5.07813C21.999 4.51567 21.553 4.06352 21 4.06352Z" fill="white"/>
<path d="M41 6.09375C38.243 6.09375 36 3.8157 36 1.01562C36 0.454797 35.5522 0 35 0H7C6.4478 0 6 0.454797 6 1.01562C6 3.8157 3.757 6.09375 1 6.09375C0.4478 6.09375 0 6.54855 0 7.10938V23.6834C0 36.5998 8.2895 48.1736 20.7128 51.9572C20.8065 51.9857 20.9032 52 21 52C21.0968 52 21.1937 51.9857 21.2873 51.9571C33.4415 48.2543 42 36.8823 42 23.6834V7.10938C42 6.54855 41.5522 6.09375 41 6.09375ZM40 23.6834C40 35.8148 32.3779 46.3208 21 49.9223C9.7128 46.3496 2 35.7484 2 23.6834V8.05269C5.0611 7.60602 7.489 5.14018 7.9288 2.03125H34.0712C34.511 5.14018 36.9389 7.60602 40 8.05269V23.6834Z" fill="white"/>
<path d="M37.4012 9.39352C35.3158 8.46595 33.6643 6.78864 32.751 4.67066C32.5916 4.30117 32.2322 4.0625 31.835 4.0625H24.998C24.4458 4.0625 23.998 4.5173 23.998 5.07812C23.998 5.63895 24.4458 6.09375 24.998 6.09375H31.2027C32.2592 8.19416 33.9319 9.8929 36 10.966V23.6834C36 33.6226 30.1251 42.1985 21 45.6314C11.8749 42.1984 6 33.6226 6 23.6834V10.966C8.0681 9.8929 9.7407 8.19416 10.7973 6.09375H17.002C17.5542 6.09375 18.002 5.63895 18.002 5.07812C18.002 4.5173 17.5542 4.0625 17.002 4.0625H10.165C9.7678 4.0625 9.4084 4.30127 9.249 4.67066C8.3357 6.78864 6.6842 8.46595 4.5988 9.39352C4.2351 9.55541 4 9.92052 4 10.3238V23.6834C4 34.5722 10.6311 44.0622 20.6664 47.669C20.7743 47.7078 20.8871 47.7272 21 47.7272C21.1129 47.7272 21.2257 47.7078 21.3336 47.669C31.3605 44.0652 38 34.581 38 23.6834V10.3238C38 9.92042 37.7649 9.55541 37.4012 9.39352Z" fill="white"/>
<path d="M21 14.8281C16.0374 14.8281 12 18.9286 12 23.9688C12 29.0089 16.0374 33.1094 21 33.1094C25.9626 33.1094 30 29.0089 30 23.9688C30 18.9286 25.9626 14.8281 21 14.8281ZM21 31.0781C17.1402 31.0781 14 27.8889 14 23.9688C14 20.0486 17.1402 16.8594 21 16.8594C24.8598 16.8594 28 20.0486 28 23.9688C28 27.8889 24.8598 31.0781 21 31.0781Z" fill="white"/>
<path d="M25.7071 21.2192C25.3165 20.8228 24.6835 20.8228 24.2928 21.2192L20 25.5792L18.7071 24.2662C18.3165 23.8697 17.6835 23.8697 17.2928 24.2662C16.9023 24.6628 16.9023 25.3059 17.2928 25.7026L19.2928 27.7339C19.4882 27.932 19.744 28.0312 20 28.0312C20.256 28.0312 20.5118 27.932 20.7071 27.7338L25.7071 22.6556C26.0976 22.259 26.0976 21.616 25.7071 21.2192Z" fill="white"/>
</svg>
