<svg width="18" height="19" viewBox="0 0 18 19" fill="none" xmlns="http://www.w3.org/2000/svg">
<path fill-rule="evenodd" clip-rule="evenodd" d="M6.61539 0C5.9357 0 5.38462 0.553265 5.38462 1.23577V17.7642C5.38462 18.4467 5.9357 19 6.61539 19H16.7692C17.4489 19 18 18.4467 18 17.7642V1.23577C18 0.553265 17.4489 0 16.7692 0H6.61539ZM8 1.54472C7.4052 1.54472 6.92308 2.02883 6.92308 2.62602V16.374C6.92308 16.9712 7.4052 17.4553 8 17.4553H15.3846C15.9794 17.4553 16.4615 16.9712 16.4615 16.374V2.62602C16.4615 2.02883 15.9794 1.54472 15.3846 1.54472H14C14 1.88596 13.7245 2.1626 13.3846 2.1626H9.84615C9.50631 2.1626 9.23077 1.88596 9.23077 1.54472H8ZM10.1538 0.849594C10.1538 0.721634 10.2572 0.617886 10.3846 0.617886H12.0769C12.2043 0.617886 12.3077 0.721634 12.3077 0.849594C12.3077 0.977553 12.2043 1.0813 12.0769 1.0813H10.3846C10.2572 1.0813 10.1538 0.977553 10.1538 0.849594ZM12.8462 0.617886C12.7188 0.617886 12.6154 0.721634 12.6154 0.849594C12.6154 0.977553 12.7188 1.0813 12.8462 1.0813C12.9736 1.0813 13.0769 0.977553 13.0769 0.849594C13.0769 0.721634 12.9736 0.617886 12.8462 0.617886Z" fill="#D0D0D0"/>
<path d="M3.84615 0H1.23077C0.551082 0 0 0.553265 0 1.23577V17.7642C0 18.4467 0.551082 19 1.23077 19H3.84615V17.4553H2.61538C2.02058 17.4553 1.53846 16.9712 1.53846 16.374V2.62602C1.53846 2.02883 2.02058 1.54472 2.61538 1.54472H3.84615V0Z" fill="#D0D0D0"/>
</svg>
