<svg width="14" height="17" viewBox="0 0 14 17" fill="none" xmlns="http://www.w3.org/2000/svg">
<path d="M12.744 2.95578C11.4229 1.07747 9.32924 0 7.0002 0C4.67116 0 2.57749 1.07747 1.25644 2.95578C-0.0581268 4.82458 -0.361665 7.19054 0.442858 9.28084C0.658048 9.85167 1.00012 10.4063 1.45713 10.926L6.53957 16.7908C6.65452 16.9235 6.82293 17 7.0002 17C7.17747 17 7.34589 16.9235 7.46083 16.7908L12.5419 10.9275C13.0009 10.4049 13.3425 9.85087 13.5559 9.28462C14.3621 7.19054 14.0585 4.82458 12.744 2.95578ZM12.4229 8.86832C12.2583 9.30521 11.9897 9.73715 11.6248 10.1526C11.6238 10.1536 11.6228 10.1546 11.622 10.1558L7.0002 15.4888L2.37558 10.1525C2.01094 9.73735 1.74228 9.30544 1.5761 8.86437C0.910754 7.13565 1.16326 5.17946 2.25175 3.63182C3.34365 2.07925 5.07451 1.1888 7.0002 1.1888C8.92587 1.1888 10.6565 2.07921 11.7485 3.63182C12.8371 5.17946 13.0899 7.13565 12.4229 8.86832Z" fill="#D0D0D0"/>
<path d="M7.0002 3.5268C5.132 3.5268 3.61191 5.01995 3.61191 6.85548C3.61191 8.69102 5.13179 10.1842 7.0002 10.1842C8.86861 10.1842 10.3885 8.69102 10.3885 6.85548C10.3885 5.02015 8.86841 3.5268 7.0002 3.5268ZM7.0002 8.99532C5.79917 8.99532 4.822 8.03536 4.822 6.85545C4.822 5.67554 5.79917 4.71557 7.0002 4.71557C8.20124 4.71557 9.1784 5.67554 9.1784 6.85545C9.1784 8.03536 8.20124 8.99532 7.0002 8.99532Z" fill="#D0D0D0"/>
</svg>
