<svg width="18" height="18" viewBox="0 0 18 18" fill="none" xmlns="http://www.w3.org/2000/svg">
<path d="M7.18945 16.1228V17.9459L6.74863 17.5898C6.68051 17.5347 5.05989 16.219 3.41647 14.3322C1.14944 11.7294 0 9.39304 0 7.38817V7.18945C0 3.22517 3.22517 0 7.18945 0C11.1537 0 14.3789 3.22517 14.3789 7.18945V7.38817C14.3789 7.55653 14.37 7.72751 14.3538 7.90054L12.9478 6.61789C12.6598 3.69443 10.1873 1.40282 7.18945 1.40282C3.99875 1.40282 1.40282 3.99875 1.40282 7.18945V7.38817C1.40282 10.7761 5.76796 14.8774 7.18945 16.1228ZM11.5031 15.1153H13.6073V13.0111H11.5031V15.1153ZM7.18945 4.20845C8.83315 4.20845 10.1705 5.54576 10.1705 7.18945C10.1705 8.83315 8.83315 10.1705 7.18945 10.1705C5.54576 10.1705 4.20845 8.83315 4.20845 7.18945C4.20845 5.54576 5.54576 4.20845 7.18945 4.20845ZM7.18945 5.61127C6.3192 5.61127 5.61127 6.3192 5.61127 7.18945C5.61127 8.05957 6.3192 8.76764 7.18945 8.76764C8.05957 8.76764 8.76764 8.05957 8.76764 7.18945C8.76764 6.3192 8.05957 5.61127 7.18945 5.61127ZM17.0546 14.1621L16.6602 13.8023V16.0543C16.6602 17.103 15.807 17.9561 14.7583 17.9561H10.317C9.26834 17.9561 8.41512 17.103 8.41512 16.0543V13.8023L8.02071 14.1621L7.07533 13.1258L12.5376 8.14252L18 13.1258L17.0546 14.1621ZM15.2574 12.5225L12.5376 10.0414L9.81793 12.5225V16.0542C9.81793 16.3294 10.0418 16.5532 10.317 16.5532H14.7583C15.0336 16.5532 15.2574 16.3294 15.2574 16.0542V12.5225Z" fill="#D0D0D0"/>
</svg>
