<svg width="18" height="18" viewBox="0 0 18 18" fill="none" xmlns="http://www.w3.org/2000/svg">
<path d="M4.41187 7.0958C3.24422 7.0958 2.29426 8.04484 2.29426 9.21143C2.29426 10.378 3.24422 11.3271 4.41187 11.3271C5.57951 11.3271 6.52948 10.378 6.52948 9.21143C6.52948 8.04484 5.57955 7.0958 4.41187 7.0958ZM4.41187 10.2693C3.82801 10.2693 3.35299 9.79474 3.35299 9.21139C3.35299 8.62808 3.82798 8.15351 4.41187 8.15351C4.99573 8.15351 5.47074 8.62805 5.47074 9.21139C5.47074 9.79474 4.99576 10.2693 4.41187 10.2693Z" fill="#D0D0D0"/>
<path d="M11.5062 7.63594H9.38887V8.69379H11.5062V7.63594Z" fill="#D0D0D0"/>
<path d="M14.6824 7.63594H12.565V8.69379H14.6824V7.63594Z" fill="#D0D0D0"/>
<path d="M11.5062 9.75164H9.38887V10.8095H11.5062V9.75164Z" fill="#D0D0D0"/>
<path d="M14.6824 9.75164H12.565V10.8095H14.6824V9.75164Z" fill="#D0D0D0"/>
<path d="M11.5062 3.4534H9.38887V4.51125H11.5062V3.4534Z" fill="#D0D0D0"/>
<path d="M14.6824 3.4534H12.565V4.51125H14.6824V3.4534Z" fill="#D0D0D0"/>
<path d="M11.5062 5.56875H9.38887V6.6266H11.5062V5.56875Z" fill="#D0D0D0"/>
<path d="M14.6824 5.56875H12.565V6.6266H14.6824V5.56875Z" fill="#D0D0D0"/>
<path d="M15.8826 1.05961V0H8.11799V1.06499H5.96512V5.08595C5.48172 4.9037 4.95836 4.80368 4.4119 4.80368C1.97918 4.80368 0 6.78101 0 9.21147C0 10.207 0.65786 11.8393 2.01116 14.2015C2.98076 15.8938 3.96423 17.3422 3.97405 17.3567L4.41183 18L4.84962 17.3567C4.8575 17.345 5.49664 16.4037 6.25148 15.1541H18V1.06678L15.8826 1.05961ZM4.41187 16.102C3.18581 14.2144 1.05873 10.6423 1.05873 9.21143C1.05873 7.36421 2.56293 5.86143 4.41187 5.86143C6.26085 5.86143 7.76504 7.36421 7.76504 9.21143C7.76504 10.6423 5.638 14.2144 4.41187 16.102ZM16.9413 14.0963H12.5651V11.9101H11.5064V14.0963H6.87243C8.18499 11.7911 8.82381 10.1921 8.82381 9.21143C8.82381 7.7568 8.11468 6.46471 7.02385 5.66146V2.12277H9.17672V1.05778H14.8239V2.11377L16.9413 2.12098V14.0963Z" fill="#D0D0D0"/>
</svg>
