<svg width="15" height="17" viewBox="0 0 15 17" fill="none" xmlns="http://www.w3.org/2000/svg">
<path d="M11.317 12.1523C11.6868 12.1523 11.9866 11.855 11.9866 11.4883C11.9866 11.1215 11.6868 10.8242 11.317 10.8242C10.9471 10.8242 10.6473 11.1215 10.6473 11.4883C10.6473 11.855 10.9471 12.1523 11.317 12.1523Z" fill="#D0D0D0"/>
<path d="M14.3304 12.0195C14.7002 12.0195 15 11.7222 15 11.3555V8.89844C15 7.43378 13.7984 6.24219 12.3214 6.24219H11.5166V3.90024C11.5166 1.74964 9.71421 0 7.49876 0C5.28331 0 3.4809 1.74964 3.4809 3.90024V6.24219H2.67857C1.20161 6.24219 0 7.43378 0 8.89844V14.3438C0 15.8084 1.20161 17 2.67857 17H12.3214C13.7984 17 15 15.8084 15 14.3438C15 13.977 14.7002 13.6797 14.3304 13.6797C13.9605 13.6797 13.6607 13.977 13.6607 14.3438C13.6607 15.0761 13.0599 15.6719 12.3214 15.6719H2.67857C1.94009 15.6719 1.33929 15.0761 1.33929 14.3438V8.89844C1.33929 8.16611 1.94009 7.57031 2.67857 7.57031H12.3214C13.0599 7.57031 13.6607 8.16611 13.6607 8.89844V11.3555C13.6607 11.7222 13.9605 12.0195 14.3304 12.0195ZM10.1773 6.24219H4.82019V3.90024C4.82019 2.48197 6.0218 1.32812 7.49876 1.32812C8.97573 1.32812 10.1773 2.48197 10.1773 3.90024V6.24219Z" fill="#D0D0D0"/>
<path d="M6.26116 12.1523C6.63099 12.1523 6.9308 11.855 6.9308 11.4883C6.9308 11.1215 6.63099 10.8242 6.26116 10.8242C5.89133 10.8242 5.59152 11.1215 5.59152 11.4883C5.59152 11.855 5.89133 12.1523 6.26116 12.1523Z" fill="#D0D0D0"/>
<path d="M3.75 12.1523C4.11983 12.1523 4.41964 11.855 4.41964 11.4883C4.41964 11.1215 4.11983 10.8242 3.75 10.8242C3.38017 10.8242 3.08036 11.1215 3.08036 11.4883C3.08036 11.855 3.38017 12.1523 3.75 12.1523Z" fill="#D0D0D0"/>
<path d="M8.77232 12.1523C9.14215 12.1523 9.44196 11.855 9.44196 11.4883C9.44196 11.1215 9.14215 10.8242 8.77232 10.8242C8.40249 10.8242 8.10268 11.1215 8.10268 11.4883C8.10268 11.855 8.40249 12.1523 8.77232 12.1523Z" fill="#D0D0D0"/>
</svg>
