<svg width="20" height="18" viewBox="0 0 20 18" fill="none" xmlns="http://www.w3.org/2000/svg">
<path d="M15.4055 17.1087H15.4054C15.0379 17.1087 14.6855 16.9927 14.3867 16.7734C14.3806 16.7688 14.3745 16.7642 14.3685 16.7595L9.92452 13.3028L8.08659 15.0569C7.79265 15.351 7.40364 15.5127 6.98928 15.5127C6.30536 15.5127 5.70801 15.0752 5.5029 14.4241C5.49927 14.4125 5.49581 14.4008 5.49269 14.3891L4.42021 10.3731L1.02906 9.37178C0.431255 9.19535 0.0277282 8.67884 0.00136684 8.05603C-0.0250512 7.43311 0.33335 6.88428 0.914377 6.65786L17.7 0.116557C17.8986 0.0391735 18.1054 0 18.3151 0C18.8233 0 19.3004 0.228465 19.6241 0.626777C19.9444 1.02106 20.0683 1.53383 19.9637 2.03351L17.0978 15.7352C16.9314 16.531 16.2197 17.1087 15.4055 17.1087ZM15.366 15.4494C15.3793 15.4582 15.3915 15.462 15.4055 15.462C15.4123 15.462 15.473 15.4603 15.4861 15.398L18.3519 1.69637C18.3552 1.68095 18.354 1.67477 18.3461 1.66507C18.3375 1.65453 18.3241 1.64654 18.315 1.64654C18.3109 1.64654 18.3048 1.64801 18.2979 1.65073L2.08822 7.96754L5.32942 8.9246C5.6046 9.00583 5.81765 9.2246 5.89174 9.50182L7.03526 13.7838L9.30109 11.6215C9.59616 11.3399 10.053 11.3168 10.375 11.5673L15.366 15.4494Z" fill="#D0D0D0"/>
<path d="M7.94081 14.462C7.96666 14.5457 8.90994 13.3665 8.91998 13.2793L8.49689 11.208C8.44116 10.9352 8.54003 10.6538 8.75416 10.4759L16.5094 4.03155C16.696 3.86641 16.4792 3.57519 16.2676 3.70632L7.14787 9.26862C6.93165 9.40054 6.82008 9.6527 6.86787 9.90135L7.94081 14.462Z" fill="#D0D0D0"/>
</svg>
